# Blender 5.1.1
# www.blender.org
mtllib bush.mtl
o vetka_kusta.004
v 0.502353 0.011601 0.110382
v -0.510216 -0.043539 -0.114001
v 0.189338 0.971123 0.385774
v -0.459828 0.979358 -0.260944
v 0.401011 0.493044 0.275551
v 0.401011 0.493044 0.275551
v -0.480957 0.468874 -0.195139
v -0.480957 0.468874 -0.195139
v 0.021114 -0.010030 -0.049045
v 0.021114 -0.010030 -0.049045
v -0.102952 0.971499 0.133023
v -0.102952 0.971499 0.133023
v -0.039949 0.480965 0.040160
v -0.039949 0.480965 0.040160
v -0.039949 0.480965 0.040160
v -0.039949 0.480965 0.040160
v 0.143924 0.983798 0.308900
v 0.143924 0.983798 0.308900
v 0.180519 0.487002 0.157878
v 0.180519 0.487002 0.157878
v 0.180519 0.487002 0.157878
v 0.180519 0.487002 0.157878
v 0.217114 -0.009795 0.114819
v 0.217114 -0.009795 0.114819
v -0.269275 -0.032647 -0.034895
v -0.269275 -0.032647 -0.034895
v -0.297060 0.971713 -0.034408
v -0.297060 0.971713 -0.034408
v -0.226575 0.502884 -0.191481
v -0.226575 0.502884 -0.191481
v -0.226575 0.502884 -0.191481
v -0.226575 0.502884 -0.191481
v -0.459895 0.000046 0.066680
v 0.540105 0.000046 -0.233532
v -0.336643 1.000046 -0.214941
v 0.540105 1.000046 -0.046940
v -0.459895 0.500046 -0.072384
v -0.459895 0.500046 -0.072384
v 0.540105 0.500046 -0.072384
v 0.540105 0.500046 -0.072384
v 0.040105 0.000046 -0.019779
v 0.040105 0.000046 -0.019779
v 0.040105 1.000046 -0.129051
v 0.040105 1.000046 -0.129051
v 0.040105 0.500046 -0.072332
v 0.040105 0.500046 -0.072332
v 0.040105 0.500046 -0.072332
v 0.040105 0.500046 -0.072332
v -0.209895 1.000046 -0.072384
v -0.209895 1.000046 -0.072384
v -0.209895 0.500046 -0.072384
v -0.209895 0.500046 -0.072384
v -0.209895 0.500046 -0.072384
v -0.209895 0.500046 -0.072384
v -0.209895 0.000046 -0.072384
v -0.209895 0.000046 -0.072384
v 0.290105 0.000046 -0.169904
v 0.290105 0.000046 -0.169904
v 0.290105 1.000046 -0.072384
v 0.290105 1.000046 -0.072384
v 0.313205 0.515536 0.046597
v 0.313205 0.515536 0.046597
v 0.313205 0.515536 0.046597
v 0.313205 0.515536 0.046597
v 0.139003 -0.041473 0.406439
v -0.150645 -0.023282 -0.527285
v -0.219141 0.938163 0.389023
v 0.037866 0.993297 -0.558906
v -0.037713 0.446036 0.491043
v -0.037713 0.446036 0.491043
v -0.047684 0.485675 -0.508121
v -0.047684 0.485675 -0.508121
v 0.047813 -0.028264 -0.029045
v 0.047813 -0.028264 -0.029045
v -0.140533 0.959665 0.011995
v -0.140533 0.959665 0.011995
v -0.042647 0.465859 -0.008540
v -0.042647 0.465859 -0.008540
v -0.042647 0.465859 -0.008540
v -0.042647 0.465859 -0.008540
v -0.078268 0.954088 0.261394
v -0.078268 0.954088 0.261394
v -0.040206 0.455946 0.241252
v -0.040206 0.455946 0.241252
v -0.040206 0.455946 0.241252
v -0.040206 0.455946 0.241252
v -0.002143 -0.042196 0.221110
v -0.002143 -0.042196 0.221110
v -0.104362 -0.029834 -0.277798
v -0.104362 -0.029834 -0.277798
v -0.083254 0.973907 -0.385686
v -0.083254 0.973907 -0.385686
v 0.072029 0.501210 -0.281610
v 0.072029 0.501210 -0.281610
v 0.072029 0.501210 -0.281610
v 0.072029 0.501210 -0.281610
v -0.462731 -0.044957 -0.245779
v 0.493178 -0.026766 0.063574
v -0.173695 0.934680 -0.540094
v 0.350821 0.989813 0.310188
v -0.367414 0.442552 -0.466143
v -0.367414 0.442552 -0.466143
v 0.470191 0.482191 0.227606
v 0.470191 0.482191 0.227606
v -0.018382 -0.031748 -0.001127
v -0.018382 -0.031748 -0.001127
v 0.066766 0.956181 -0.170498
v 0.066766 0.956181 -0.170498
v 0.022891 0.462376 -0.084194
v 0.022891 0.462376 -0.084194
v 0.022891 0.462376 -0.084194
v 0.022891 0.462376 -0.084194
v -0.163803 0.950604 -0.282382
v -0.163803 0.950604 -0.282382
v -0.172245 0.452462 -0.240154
v -0.172245 0.452462 -0.240154
v -0.172245 0.452462 -0.240154
v -0.172245 0.452462 -0.240154
v -0.180688 -0.045680 -0.197927
v -0.180688 -0.045680 -0.197927
v 0.270571 -0.033317 0.038130
v 0.270571 -0.033317 0.038130
v 0.226534 0.970423 0.029458
v 0.226534 0.970423 0.029458
v 0.162058 0.497727 0.177246
v 0.162058 0.497727 0.177246
v 0.162058 0.497727 0.177246
v 0.162058 0.497727 0.177246
v -0.140148 0.006669 0.442328
v 0.075460 0.023563 -0.569625
v -0.399875 0.990470 0.199060
v 0.351432 1.037779 -0.442266
v -0.297976 0.496543 0.375600
v -0.297976 0.496543 0.375600
v 0.180609 0.531224 -0.501756
v 0.180609 0.531224 -0.501756
v 0.023487 0.018527 -0.037836
v 0.023487 0.018527 -0.037836
v -0.144409 1.008982 -0.090269
v -0.144409 1.008982 -0.090269
v -0.058638 0.513887 -0.063053
v -0.058638 0.513887 -0.063053
v -0.058638 0.513887 -0.063053
v -0.058638 0.513887 -0.063053
v -0.214469 1.003906 0.156261
v -0.214469 1.003906 0.156261
v -0.178330 0.505213 0.156261
v -0.178330 0.505213 0.156261
v -0.178330 0.505213 0.156261
v -0.178330 0.505213 0.156261
v -0.142191 0.006521 0.156261
v -0.142191 0.006521 0.156261
v 0.011765 0.017678 -0.329211
v 0.011765 0.017678 -0.329211
v 0.154074 1.021246 -0.338679
v 0.154074 1.021246 -0.338679
v 0.175014 0.546349 -0.245592
v 0.175014 0.546349 -0.245592
v 0.175014 0.546349 -0.245592
v 0.175014 0.546349 -0.245592
v -0.411674 -0.058128 0.294886
v 0.399506 0.018894 -0.349116
v -0.542295 0.914611 -0.067353
v 0.393275 1.035373 -0.160008
v -0.532809 0.421880 0.139142
v -0.532809 0.421880 0.139142
v 0.265461 0.528040 -0.311906
v 0.265461 0.528040 -0.311906
v 0.014116 -0.014030 0.022428
v 0.014116 -0.014030 0.022428
v -0.164748 0.963528 -0.133548
v -0.164748 0.963528 -0.133548
v -0.074534 0.474966 -0.053641
v -0.074534 0.474966 -0.053641
v -0.074534 0.474966 -0.053641
v -0.074534 0.474966 -0.053641
v -0.372597 0.942875 0.015057
v -0.372597 0.942875 0.015057
v -0.303681 0.448420 0.042726
v -0.303681 0.448420 0.042726
v -0.303681 0.448420 0.042726
v -0.303681 0.448420 0.042726
v -0.234766 -0.046034 0.070396
v -0.234766 -0.046034 0.070396
v 0.186871 -0.003084 -0.250265
v 0.186871 -0.003084 -0.250265
v 0.085659 0.995954 -0.177774
v 0.085659 0.995954 -0.177774
v 0.218290 0.531629 -0.050292
v 0.218290 0.531629 -0.050292
v 0.218290 0.531629 -0.050292
v 0.218290 0.531629 -0.050292
vn 0.4754 0.1054 -0.8735
vn 0.4754 0.1054 -0.8734
vn 0.1806 -0.2294 -0.9564
vn 0.1807 -0.2294 -0.9564
vn 0.5508 0.1640 -0.8183
vn 0.5509 0.1641 -0.8183
vn 0.5072 0.2546 -0.8234
vn 0.5073 0.2546 -0.8233
vn 0.5599 0.3445 -0.7535
vn 0.5599 0.3445 -0.7536
vn 0.5600 0.3445 -0.7535
vn 0.2006 0.2309 -0.9521
vn 0.2006 0.2310 -0.9520
vn 0.2007 0.2310 -0.9520
vn 0.4143 -0.0523 -0.9086
vn 0.4144 -0.0522 -0.9086
vn 0.7042 0.2691 -0.6570
vn 0.7043 0.2692 -0.6569
vn 0.1946 0.0973 0.9760
vn 0.1946 0.0973 0.9761
vn 0.3273 -0.3359 0.8832
vn -0.1046 0.0522 0.9931
vn -0.1046 0.0522 0.9932
vn 0.1123 0.0563 0.9921
vn 0.1124 0.0562 0.9921
vn -0.3484 0.1742 0.9210
vn -0.3485 0.1742 0.9210
vn 0.2656 0.1327 0.9549
vn 0.2655 0.1328 0.9549
vn 0.0635 -0.1605 0.9850
vn 0.0634 -0.1605 0.9850
vn -0.3184 0.1593 0.9345
vn -0.3184 0.1594 0.9345
vn -0.3183 0.1593 0.9345
vn 0.9974 0.0716 0.0042
vn 0.9176 -0.2418 -0.3154
vn 0.9176 -0.2418 -0.3155
vn 0.9873 0.1238 0.0997
vn 0.9873 0.1237 0.0997
vn 0.9825 0.1397 -0.1230
vn 0.9825 0.1397 -0.1231
vn 0.9085 0.2302 0.3488
vn 0.9085 0.2303 0.3488
vn 0.9248 0.2334 -0.3004
vn 0.9248 0.2335 -0.3004
vn 0.9248 0.2335 -0.3003
vn 0.9937 -0.0820 -0.0768
vn 0.9937 -0.0820 -0.0767
vn 0.9290 0.2656 0.2578
vn -0.6079 0.0188 0.7938
vn -0.6080 0.0188 0.7937
vn -0.1401 -0.2934 0.9457
vn -0.7012 0.1238 0.7021
vn -0.7013 0.1238 0.7021
vn -0.5311 0.1364 0.8363
vn -0.9009 0.2273 0.3698
vn -0.9009 0.2272 0.3699
vn -0.4828 0.2725 0.8323
vn -0.4828 0.2726 0.8322
vn -0.5685 -0.0820 0.8186
vn -0.8297 0.2175 0.5141
vn 0.8653 -0.1154 0.4877
vn 0.8653 -0.1154 0.4878
vn 0.9537 -0.2672 0.1381
vn 0.9537 -0.2672 0.1380
vn 0.8152 0.1114 0.5684
vn 0.8152 0.1114 0.5683
vn 0.9178 0.1230 0.3775
vn 0.9178 0.1229 0.3775
vn 0.6266 0.2201 0.7476
vn 0.6266 0.2201 0.7477
vn 0.6265 0.2201 0.7477
vn 0.9531 0.2021 0.2252
vn 0.9531 0.2022 0.2253
vn 0.9039 -0.0954 0.4169
vn 0.9039 -0.0953 0.4170
vn 0.9039 -0.0954 0.4170
vn 0.6126 0.1633 0.7733
vn 0.5676 -0.0179 0.8231
vn 0.5675 -0.0178 0.8232
vn 0.5676 -0.0178 0.8231
vn 0.8114 -0.0525 0.5822
vn 0.8114 -0.0525 0.5821
vn 0.2699 0.1437 0.9521
vn 0.2700 0.1437 0.9521
vn 0.4677 0.1706 0.8672
vn 0.4677 0.1707 0.8672
vn 0.4678 0.1706 0.8672
vn 0.0025 0.2310 0.9730
vn 0.0024 0.2310 0.9729
vn 0.0024 0.2310 0.9730
vn 0.5837 0.2587 0.7697
vn 0.5836 0.2587 0.7697
vn 0.5076 -0.0756 0.8583
vn 0.5075 -0.0756 0.8583
vn 0.0371 0.2208 0.9746
vn 0.0372 0.2208 0.9746
vt 0.720909 0.500000
vt 0.941818 0.500000
vt 0.941818 0.954800
vt 0.720909 0.954800
vt 0.720909 0.045200
vt 0.941818 0.045200
vt 0.279091 0.045200
vt 0.500000 0.045200
vt 0.500000 0.500000
vt 0.279091 0.500000
vt 0.500000 0.954800
vt 0.279091 0.954800
vt 0.058182 0.500000
vt 0.058182 0.954800
vt 0.058182 0.045200
s 1
usemtl vetka_kusta
f 30/1/1 7/2/1 4/3/2
f 30/1/1 4/3/2 28/4/2
f 26/5/3 2/6/4 8/2/3
f 26/5/3 8/2/3 32/1/3
f 23/7/5 9/8/6 14/9/5
f 23/7/5 14/9/5 20/10/5
f 21/10/7 15/9/8 12/11/8
f 21/10/7 12/11/8 18/12/8
f 5/13/9 19/10/10 17/12/11
f 5/13/9 17/12/11 3/14/9
f 1/15/12 24/7/12 22/10/13
f 1/15/12 22/10/13 6/13/14
f 10/8/15 25/5/15 31/1/16
f 10/8/15 31/1/16 16/9/15
f 13/9/17 29/1/18 27/4/17
f 13/9/17 27/4/17 11/11/17
f 62/1/19 40/2/19 36/3/19
f 62/1/19 36/3/19 59/4/20
f 57/5/21 34/6/21 39/2/21
f 57/5/21 39/2/21 61/1/21
f 56/7/22 42/8/22 47/9/22
f 56/7/22 47/9/22 53/10/23
f 52/10/24 45/9/24 43/11/25
f 52/10/24 43/11/25 49/12/25
f 38/13/26 54/10/26 50/12/27
f 38/13/26 50/12/27 35/14/27
f 33/15/28 55/7/28 51/10/29
f 33/15/28 51/10/29 37/13/29
f 41/8/30 58/5/30 63/1/31
f 41/8/30 63/1/31 46/9/31
f 48/9/32 64/1/33 60/4/32
f 48/9/32 60/4/32 44/11/34
f 94/1/35 71/2/35 68/3/35
f 94/1/35 68/3/35 92/4/35
f 90/5/36 66/6/36 72/2/36
f 90/5/36 72/2/36 96/1/37
f 87/7/38 73/8/38 78/9/39
f 87/7/38 78/9/39 84/10/38
f 85/10/40 80/9/40 76/11/40
f 85/10/40 76/11/40 82/12/41
f 69/13/42 83/10/42 81/12/43
f 69/13/42 81/12/43 67/14/42
f 65/15/44 88/7/44 86/10/45
f 65/15/44 86/10/45 70/13/46
f 74/8/47 89/5/48 95/1/48
f 74/8/47 95/1/48 79/9/48
f 77/9/49 93/1/49 91/4/49
f 77/9/49 91/4/49 75/11/49
f 127/1/50 104/2/50 100/3/51
f 127/1/50 100/3/51 123/4/50
f 121/5/52 98/6/52 103/2/52
f 121/5/52 103/2/52 125/1/52
f 120/7/53 106/8/54 111/9/53
f 120/7/53 111/9/53 117/10/53
f 116/10/55 109/9/55 107/11/55
f 116/10/55 107/11/55 113/12/55
f 102/13/56 118/10/57 114/12/56
f 102/13/56 114/12/56 99/14/56
f 97/15/58 119/7/58 115/10/59
f 97/15/58 115/10/59 101/13/59
f 105/8/60 122/5/60 126/1/60
f 105/8/60 126/1/60 110/9/60
f 112/9/61 128/1/61 124/4/61
f 112/9/61 124/4/61 108/11/61
f 158/1/62 135/2/62 132/3/63
f 158/1/62 132/3/63 155/4/62
f 154/5/64 130/6/64 136/2/64
f 154/5/64 136/2/64 160/1/65
f 151/7/66 138/8/66 143/9/67
f 151/7/66 143/9/67 148/10/67
f 147/10/68 142/9/68 139/11/69
f 147/10/68 139/11/69 145/12/69
f 134/13/70 150/10/71 146/12/72
f 134/13/70 146/12/72 131/14/72
f 129/15/73 152/7/73 149/10/74
f 129/15/73 149/10/74 133/13/74
f 137/8/75 153/5/76 157/1/77
f 137/8/75 157/1/77 141/9/75
f 144/9/78 159/1/78 156/4/78
f 144/9/78 156/4/78 140/11/78
f 190/1/79 168/2/80 164/3/81
f 190/1/79 164/3/81 187/4/79
f 185/5/82 162/6/83 167/2/83
f 185/5/82 167/2/83 189/1/83
f 184/7/84 170/8/84 175/9/85
f 184/7/84 175/9/85 181/10/84
f 180/10/86 174/9/87 171/11/88
f 180/10/86 171/11/88 177/12/88
f 166/13/89 182/10/89 178/12/90
f 166/13/89 178/12/90 163/14/91
f 161/15/92 183/7/92 179/10/92
f 161/15/92 179/10/92 165/13/93
f 169/8/94 186/5/94 191/1/95
f 169/8/94 191/1/95 173/9/94
f 176/9/96 192/1/96 188/4/97
f 176/9/96 188/4/97 172/11/96
