# Blender 5.1.1
# www.blender.org
mtllib pine_low_poly.mtl
o Pine_s_1_
v -0.000027 -0.032659 -0.160585
v -0.023621 1.681599 -0.063491
v 0.128720 -0.062686 -0.113663
v 0.035193 1.681599 -0.039130
v 0.175642 -0.062686 -0.000381
v 0.059554 1.681599 0.019684
v 0.113255 -0.069099 0.112900
v 0.035193 1.681599 0.078498
v -0.013814 -0.032659 0.183743
v -0.023621 1.681599 0.102859
v -0.127095 -0.032659 0.136820
v -0.082434 1.681599 0.078498
v -0.160231 -0.032659 -0.000381
v -0.106796 1.681599 0.019684
v -0.113308 -0.032659 -0.113663
v -0.082434 1.681599 -0.039130
v -0.000000 0.119984 -0.105164
v 0.082551 0.119984 -0.074362
v 0.113353 0.119984 -0.000000
v 0.074362 0.119984 0.074362
v -0.000000 0.119984 0.105164
v -0.074362 0.119984 0.074362
v -0.105164 0.119984 -0.000000
v -0.074362 0.119984 -0.074362
v 0.052590 4.074620 -0.018471
v 0.007874 4.074620 -0.036994
v 0.071113 4.074620 0.026245
v 0.052590 4.074620 0.070962
v 0.007874 4.074620 0.089484
v -0.036843 4.074620 0.070962
v -0.055366 4.074620 0.026245
v -0.036843 4.074620 -0.018471
v 0.014236 6.794881 0.085116
v -0.019260 6.794881 0.071241
v 0.000362 6.794881 0.118612
v -0.033134 6.794881 0.104737
v 0.047520 2.861524 0.360321
v 1.821109 2.396515 0.206424
v -0.059915 2.648525 -0.675189
v 1.639787 2.254647 -0.933593
v 0.020613 3.015967 -0.223143
v 1.771253 2.477559 -0.387668
v 0.626852 2.415931 -1.421903
v -0.207349 3.250118 -0.158185
v 0.112244 2.142281 -1.580966
v -0.853683 3.010203 -0.310318
v 1.108276 2.352743 -1.062396
v 0.274075 3.186930 0.201322
v -1.738552 2.529518 -0.044932
v -0.105759 3.118976 0.283987
v -1.811957 2.356139 0.517761
v -0.136906 2.647404 0.821252
v -1.620054 2.460134 -0.576545
v 0.033912 2.820732 -0.295021
v -1.328348 3.546607 0.793855
v 0.010301 3.160242 0.265775
v -1.302828 3.090203 1.190596
v -0.046597 2.628738 0.547329
v -1.439230 3.820504 0.266890
v -0.100581 3.434140 -0.261189
v 1.827392 3.061321 0.662825
v 0.117632 3.224313 -0.249365
v 2.010957 2.606581 0.329173
v 0.286944 2.775258 -0.616366
v 1.580149 2.940470 1.334144
v -0.148518 3.329679 0.282677
v 0.751454 3.028604 -1.691478
v -0.228728 3.504336 -0.121994
v 0.314493 3.121665 -1.931079
v -0.793596 3.514480 -0.477843
v 1.136910 2.622555 -1.327671
v 0.156729 3.098287 0.241812
v 0.664772 3.869279 1.291593
v 0.143666 3.601178 -0.078332
v 1.139734 3.620549 1.200650
v 0.519619 3.265729 -0.032712
v 0.174530 3.595191 1.514181
v -0.346577 3.327090 0.144255
v 0.814155 3.881976 -1.157275
v -0.213258 3.613875 -0.111966
v 0.414438 3.772505 -1.596876
v -0.612975 3.504404 -0.551567
v 1.221038 3.607888 -0.804673
v 0.193626 3.339787 0.240636
v -1.705806 4.072127 -0.911576
v -0.165635 3.693930 0.243121
v -2.148152 3.874221 -0.364219
v -0.597741 3.567722 0.774634
v -1.384347 3.684437 -1.420399
v 0.166064 3.377937 -0.281546
v -0.771005 3.928977 1.527158
v 0.153298 3.440297 0.210803
v -0.662928 3.409954 1.810403
v 0.261375 2.921275 0.494050
v -1.158793 4.190915 1.149928
v -0.234491 3.702236 -0.166426
v 0.034739 3.753116 0.312946
v 1.480486 3.776965 0.177074
v -0.096051 3.696573 -0.619748
v 1.349695 3.720421 -0.755619
v 0.012518 3.880662 -0.168902
v 1.458265 3.904510 -0.304773
v 0.450348 3.905875 -1.399904
v -0.175742 4.074033 -0.115257
v 0.025365 3.679884 -1.531265
v -0.513251 3.755082 -0.257483
v 0.731936 3.730953 -1.123831
v 0.221837 4.021850 0.181638
v -1.447443 3.440841 -0.013773
v -0.091844 3.803029 0.249907
v -1.473166 3.214099 0.429921
v -0.117567 3.576288 0.693601
v -1.332097 3.357241 -0.491941
v 0.023501 3.719429 -0.228261
v -1.101506 4.318884 0.670975
v 0.004002 3.999810 0.234867
v -1.148496 3.879947 0.903493
v -0.042987 3.560873 0.467385
v -1.193078 4.545080 0.235787
v -0.087568 4.226006 -0.200322
v 1.539176 4.372161 0.560108
v 0.099276 4.189769 -0.177093
v 1.764312 4.193317 0.083847
v 0.311288 4.112124 -0.698342
v 1.416295 4.038771 0.862989
v -0.130578 4.009341 0.227322
v 0.654638 4.401586 -1.358950
v -0.185084 4.301283 -0.026889
v 0.265130 4.262368 -1.667653
v -0.642407 4.297026 -0.312912
v 0.947356 3.959445 -1.207715
v 0.107634 3.859142 0.124347
v 0.532049 4.672657 1.080094
v 0.114140 4.363952 -0.049311
v 0.967852 4.605224 0.950423
v 0.537502 4.383815 -0.180916
v 0.219261 4.418814 1.252296
v -0.290721 4.137599 0.134510
v 0.526665 4.790466 -0.954092
v -0.163183 4.245125 -0.093358
v 0.378200 4.460474 -1.297605
v -0.311648 3.915133 -0.436872
v 0.884671 4.877791 -0.591072
v 0.186945 4.320461 0.254022
v -1.318455 4.638756 -0.392174
v -0.050120 4.519527 0.130072
v -1.491027 4.801382 0.039251
v -0.222693 4.682153 0.561496
v -1.245717 4.225789 -0.650093
v 0.022617 4.106560 -0.127847
v -0.641230 4.634661 1.276565
v 0.122095 4.231090 0.189469
v -0.551976 4.206031 1.510481
v 0.211349 3.802461 0.423385
v -0.937602 4.910522 0.908248
v -0.198156 4.447409 -0.122062
v -0.262452 5.185284 1.331742
v 0.188076 4.630301 0.106137
v 0.099290 4.690484 1.422522
v 0.497861 4.390322 0.315735
v -0.586697 5.351304 0.988022
v -0.233836 4.613189 -0.032374
v 1.564160 4.998337 0.435200
v 0.024389 4.671980 -0.115157
v 1.551113 4.909610 0.026380
v 0.178681 4.767088 -0.621099
v 1.339145 4.604265 0.722527
v 0.035176 4.160750 0.209380
v -0.220386 5.037983 -1.246353
v -0.202870 4.647081 -0.000070
v -0.424432 4.587634 -1.228292
v -0.468343 4.314051 -0.086277
v 0.170930 5.089929 -1.082115
v 0.243551 4.931310 0.071687
v 0.877659 5.039369 0.784827
v 0.144402 4.784879 -0.073787
v 1.064362 4.879216 0.581215
v 0.434416 4.635615 -0.283568
v 0.575239 4.706910 0.933240
v -0.157199 4.691565 0.220225
v -1.093936 4.936550 0.312023
v -0.006145 4.948839 0.134089
v -0.984862 5.116256 0.570032
v 0.051123 5.098734 0.466754
v -0.943767 4.512180 0.288665
v -0.041495 4.592941 -0.068143
v 0.530962 4.882335 -1.062872
v 0.015390 4.950856 0.017157
v 0.321220 5.174996 -1.099496
v -0.234835 5.235906 -0.114962
v 0.298423 4.461046 -0.969445
v 0.068168 4.509539 0.062857
v 0.650232 5.598853 1.024338
v 0.154490 4.911573 0.054057
v 0.805371 5.229702 0.932491
v 0.339692 4.593150 0.175312
v 0.269648 5.546886 0.998506
v -0.207745 5.141904 0.097033
v 1.102243 5.414071 0.033802
v -0.026070 5.166959 -0.040330
v 1.083316 5.549338 -0.348209
v -0.063449 5.384001 -0.342071
v 1.046520 4.944064 0.034988
v 0.044789 4.806221 0.185415
v 0.522070 5.362823 -1.101576
v -0.160123 5.020068 0.017432
v 0.176856 5.209080 -1.257973
v -0.471162 4.803119 -0.231967
v 0.815692 4.964445 -0.816650
v 0.279594 4.965182 0.259456
v -0.770265 5.466223 -0.969695
v -0.203128 5.005764 0.171086
v -1.096917 5.337029 -0.760227
v -0.598342 4.824125 0.300798
v -0.394679 5.079663 -1.097596
v 0.222380 4.916358 -0.085600
v -1.280110 5.594219 0.326292
v -0.100454 4.953676 0.127857
v -1.433222 5.064333 0.424142
v -0.324327 4.514290 0.145660
v -0.905055 5.830475 -0.025239
v 0.120632 5.403391 0.066087
v -0.609377 5.939838 -0.998394
v -0.209867 5.472767 0.150056
v -0.931600 5.938169 -0.887748
v -0.453413 5.761574 0.364697
v -0.351277 5.462797 -1.144905
v 0.221966 5.426199 -0.044529
v -0.561877 4.211469 -1.753466
v -0.242561 3.768773 0.116497
v -1.183746 4.060986 -1.667614
v -0.918010 3.880761 0.244474
v -0.114209 3.711860 -1.940913
v 0.205106 3.269165 -0.070950
v 0.136144 6.035545 0.220884
v 0.308371 7.120830 0.553970
v 0.018941 6.265923 -0.389802
v 0.128022 7.326962 -0.118155
v -0.089385 6.146865 -0.059992
v 0.123463 7.232034 0.246694
v -0.047394 5.997646 0.192013
v 0.595283 6.560910 0.712936
v 0.187362 6.211918 -0.290755
v 0.795917 6.799120 0.162300
v -0.036678 6.205210 -0.062536
v 0.636987 6.743382 0.444483
v 0.109492 5.959566 0.024638
v 0.278098 6.369740 -0.553721
v -0.280831 6.115601 0.003100
v -0.148176 6.543207 -0.533217
v -0.064442 6.110716 0.089197
v 0.086092 6.502618 -0.506050
v -0.115853 5.769478 -0.074102
v -0.839718 6.302864 0.204220
v 0.183756 5.983749 0.371331
v -0.513620 6.570951 0.670101
v 0.098896 5.977042 0.062985
v -0.677842 6.515213 0.390966
v -0.091258 6.160360 -0.045155
v -0.457818 6.682940 0.127866
v 0.165346 6.257229 0.286526
v -0.134586 6.895486 0.498344
v 0.102995 6.268639 0.056924
v -0.327448 6.855595 0.259229
v -0.184847 5.791029 0.050267
v -0.480116 6.334694 1.068718
v 0.472964 5.828267 0.249050
v 0.255861 6.392827 1.218040
v 0.170857 5.953983 0.054155
v -0.110817 6.455764 1.096872
v -0.196992 5.535237 -0.064773
v -0.606708 6.348389 0.930191
v 0.270459 5.185052 0.450561
v -0.038181 5.963498 1.435567
v 0.192620 5.467853 0.134673
v -0.243057 6.236075 1.153000
v -0.139544 5.711377 0.213034
v 0.570867 6.438548 0.758143
v 0.399767 5.278324 0.017771
v 1.051888 5.998589 0.617641
v 0.127737 5.624523 -0.040884
v 0.855764 6.256194 0.597635
v 0.122727 5.404021 -0.045471
v 0.038837 6.116644 -1.009437
v -0.224174 6.134888 0.363409
v -0.467662 6.475350 -0.695466
v -0.025633 5.699154 0.141659
v -0.388394 6.171067 -0.905307
v 0.152463 3.917203 0.082932
v 0.995853 4.535447 -0.768835
v -0.522587 4.282777 -0.258804
v 0.354473 4.813482 -1.114159
v -0.126009 4.261469 0.075843
v 0.682374 4.826890 -0.885812
v -0.157903 3.997300 0.235091
v 0.924064 4.319803 1.148630
v 0.361444 3.356979 -0.223699
v 1.443411 3.679483 0.689839
v 0.187692 3.796379 -0.063461
v 1.269659 4.118882 0.850078
v 0.015498 5.928355 0.135641
v 0.132705 6.161267 -1.084834
v 0.365668 5.321618 0.092257
v 0.712846 5.657748 -0.922378
v 0.026173 5.579654 0.012692
v 0.669649 6.018186 -0.923385
v -1.183501 5.563210 -0.412428
v -0.128448 5.036436 0.079085
v -1.265374 5.236414 -0.369768
v -0.303592 4.720130 -0.017045
v -0.658156 5.678784 -0.399065
v 0.066103 5.360178 0.141165
v -1.203792 4.894948 -0.412428
v -0.047056 4.665630 0.079085
v -1.196419 4.558133 -0.369768
v -0.132410 4.314290 -0.017045
v -0.727648 5.145208 -0.399065
v 0.055052 5.029269 0.141165
v -1.341685 4.109022 0.008312
v -0.084932 3.879705 -0.005735
v -1.317810 3.772207 0.044426
v -0.201691 3.528364 -0.059528
v -0.900206 4.359282 -0.170542
v 0.033507 4.243343 0.010147
v -1.257276 2.875465 -0.049858
v -0.046867 3.279036 -0.177340
v -1.095631 2.702094 -0.457889
v -0.155872 3.381399 -0.520277
v -0.875933 3.048891 0.316144
v 0.054189 3.210372 0.185408
v -0.927894 4.260423 -1.182738
v -0.040954 4.342696 0.058176
v -1.025391 3.925635 -0.975590
v -0.079797 3.896351 0.025567
v -0.404811 4.551025 -1.004509
v 0.034386 4.796075 0.060575
v 0.998351 5.782567 0.114288
v -0.045348 5.279010 -0.042255
v 0.890557 5.932096 -0.186814
v -0.070497 5.431949 -0.402098
v 1.053870 5.307719 0.104924
v 0.094248 4.934309 0.185035
v 0.891241 6.264564 -0.112053
v 0.017423 5.665107 -0.102610
v 0.939276 6.075002 -0.365279
v 0.154654 5.453504 -0.352540
v 0.860285 6.065519 0.271624
v -0.010372 5.722313 0.287224
v 1.042299 2.826272 1.038896
v 0.069463 2.906032 -0.027398
v 1.078481 2.343316 0.926028
v 0.163633 2.448576 -0.219678
v 0.783141 2.933501 1.289595
v -0.195957 3.181045 0.197829
v 0.046540 2.930510 0.304834
v 1.348188 3.592225 0.574454
v 0.227936 3.089469 -0.658377
v 1.460357 3.789048 -0.490112
v 0.016982 3.193898 -0.192159
v 1.347085 3.805645 0.052256
v -0.249384 2.854819 -0.266425
v -1.255501 3.704205 0.419960
v 0.291521 2.920828 0.563642
v -0.590182 3.786718 1.277378
v 0.150215 3.051792 0.078208
v -0.868283 3.852623 0.802419
vn -0.0028 0.1881 -0.9821
vn -0.0086 0.0191 -0.9998
vn 0.7018 0.0190 -0.7121
vn 0.6892 0.1886 -0.6996
vn 0.9998 0.0140 0.0141
vn 0.9821 0.1835 0.0416
vn 0.6956 0.0068 0.7183
vn 0.6925 0.1707 0.7009
vn -0.0034 0.0035 1.0000
vn 0.0508 0.2259 0.9728
vn -0.7082 0.0051 0.7060
vn -0.7099 0.2388 0.6625
vn -0.9999 0.0102 0.0012
vn -0.9808 0.1932 -0.0278
vn -0.7093 0.0159 -0.7047
vn -0.9999 0.0150 -0.0031
vn -0.7047 0.0237 -0.7091
vn -0.6932 0.1867 -0.6961
vn -0.6646 0.3408 -0.6650
vn 0.0295 0.3307 -0.9433
vn -0.9311 0.3620 -0.0444
vn -0.6535 0.4498 0.6088
vn 0.0770 0.4224 0.9031
vn 0.6932 0.3055 0.6528
vn 0.9466 0.3175 0.0563
vn 0.6967 0.3222 -0.6409
vn 0.7100 -0.0008 0.7042
vn 1.0000 0.0081 -0.0023
vn 0.9269 0.0362 -0.3735
vn 0.3762 -0.0001 0.9265
vn 0.7065 0.0189 -0.7074
vn 0.0019 -0.0026 1.0000
vn -0.7070 0.0039 0.7072
vn 0.0028 0.0253 -0.9997
vn -0.0000 1.0000 -0.0000
vn -0.3890 0.0416 -0.9203
vn -0.9202 0.0051 0.3914
vn 0.2402 0.9539 -0.1801
vn 0.2392 0.9530 -0.1857
vn 0.1607 0.8342 -0.5276
vn 0.2840 0.9436 0.1702
vn 0.0928 0.8541 -0.5118
vn 0.1032 0.8563 -0.5061
vn -0.1673 0.7593 -0.6288
vn 0.3636 0.8696 -0.3340
vn -0.2791 0.9584 0.0596
vn -0.2794 0.9582 0.0617
vn -0.3095 0.8328 0.4589
vn -0.1997 0.9154 -0.3494
vn 0.4520 0.6938 0.5606
vn 0.4532 0.6894 0.5651
vn 0.4865 0.4840 0.7274
vn 0.3870 0.8490 0.3598
vn 0.2907 0.9041 -0.3131
vn 0.2877 0.9075 -0.3059
vn 0.4080 0.6535 -0.6375
vn 0.1220 0.9904 0.0648
vn 0.4310 0.9023 0.0102
vn 0.4386 0.8985 0.0156
vn 0.1884 0.9708 -0.1488
vn 0.6352 0.7538 0.1682
vn -0.0385 0.9769 -0.2104
vn 0.0293 0.9705 -0.2393
vn 0.5032 0.7642 -0.4034
vn -0.4836 0.8752 0.0127
vn -0.0198 0.9730 0.2300
vn -0.0275 0.9745 0.2229
vn -0.2581 0.9661 -0.0059
vn 0.2133 0.8752 0.4342
vn 0.2278 0.9736 -0.0163
vn 0.2247 0.9743 -0.0120
vn -0.0008 0.9579 0.2871
vn 0.4211 0.8511 -0.3134
vn 0.7056 0.6634 0.2492
vn 0.7084 0.6590 0.2528
vn 0.8133 0.4000 0.4226
vn 0.5237 0.8503 0.0521
vn -0.0228 0.9975 -0.0675
vn -0.0211 0.9986 -0.0490
vn -0.0498 0.9288 -0.3672
vn 0.0081 0.9668 0.2555
vn -0.0539 0.9845 -0.1671
vn -0.1084 0.9766 -0.1856
vn -0.4820 0.8240 -0.2978
vn 0.3330 0.9427 -0.0210
vn -0.2759 0.9553 0.1061
vn -0.3095 0.8539 0.4184
vn -0.2122 0.9527 -0.2177
vn 0.4331 0.6565 0.6176
vn 0.4339 0.6490 0.6250
vn 0.4327 0.3854 0.8150
vn -0.1301 0.9834 0.1262
vn -0.1336 0.9819 0.1343
vn 0.0347 0.9715 -0.2346
vn -0.2759 0.8378 0.4710
vn 0.3093 0.9219 0.2336
vn 0.2976 0.9276 0.2259
vn -0.1268 0.9902 -0.0583
vn 0.6595 0.5941 0.4605
vn -0.3074 0.9455 -0.1077
vn -0.2925 0.9494 -0.1142
vn -0.0139 0.9746 -0.2233
vn -0.5528 0.8332 0.0095
vn -0.6266 0.7793 -0.0052
vn -0.6323 0.7746 -0.0127
vn -0.7679 0.5943 -0.2390
vn -0.4245 0.8778 0.2221
vn 0.2995 0.7802 -0.5492
vn 0.2979 0.7841 -0.5444
vn 0.2012 0.9404 -0.2740
vn 0.3636 0.5387 -0.7600
vn 0.7246 0.6393 0.2573
vn 0.7299 0.6300 0.2651
vn 0.5725 0.8167 0.0720
vn 0.5877 0.7914 -0.1684
vn 0.5768 0.7968 -0.1801
vn 0.7343 0.6786 0.0185
vn 0.3948 0.8502 -0.3483
vn -0.3153 0.8711 0.3766
vn -0.3198 0.8641 0.3886
vn -0.1523 0.9882 -0.0166
vn -0.4186 0.5745 0.7034
vn -0.6688 0.7210 0.1812
vn -0.6690 0.7208 0.1812
vn -0.8554 0.5014 0.1300
vn -0.4157 0.8830 0.2178
vn -0.1208 0.9877 -0.0990
vn -0.1075 0.9878 -0.1130
vn 0.2087 0.8831 -0.4203
vn -0.4285 0.8681 0.2505
vn -0.1762 0.6122 -0.7708
vn -0.1717 0.6263 -0.7605
vn -0.0605 0.8788 -0.4733
vn -0.2625 0.2322 -0.9366
vn 0.8898 0.2811 0.3596
vn 0.8843 0.2983 0.3592
vn 0.6936 0.6456 0.3196
vn 0.9312 -0.1398 0.3365
vn 0.4775 0.5984 -0.6434
vn 0.4726 0.6029 -0.6427
vn 0.7020 0.3203 -0.6361
vn 0.1805 0.8058 -0.5640
vn -0.1019 0.6229 0.7756
vn -0.1099 0.6536 0.7488
vn -0.1715 0.8699 0.4624
vn -0.0130 0.2633 0.9646
vn -0.0978 0.9797 0.1748
vn -0.1165 0.9790 0.1674
vn -0.4915 0.8709 -0.0008
vn 0.3226 0.8915 0.3179
vn 0.1850 0.9525 0.2419
vn 0.1705 0.9524 0.2526
vn -0.1584 0.8724 0.4624
vn 0.5016 0.8647 -0.0254
vn 0.2215 0.1951 0.9554
vn 0.2216 0.1768 0.9590
vn 0.2194 0.0310 0.9751
vn 0.2175 0.3581 0.9080
vn 0.5308 0.8475 -0.0035
vn 0.5282 0.8491 -0.0001
vn 0.4789 0.8759 0.0598
vn 0.5810 0.8109 -0.0697
vn 0.4146 0.9040 0.1045
vn 0.4124 0.9049 0.1049
vn -0.0024 0.9866 0.1629
vn 0.7497 0.6611 0.0285
vn -0.9628 0.0794 0.2582
vn -0.9641 0.0810 0.2528
vn -0.9789 0.1752 -0.1051
vn -0.8236 -0.0210 0.5668
vn -0.6748 0.7365 0.0467
vn -0.6729 0.7386 0.0416
vn -0.5062 0.8157 -0.2800
vn -0.7464 0.5671 0.3481
vn 0.3043 0.7365 0.6041
vn 0.2988 0.7386 0.6043
vn -0.0622 0.8157 0.5752
vn 0.6099 0.5671 0.5535
vn 0.2983 0.7365 -0.6071
vn 0.3154 0.7465 -0.5858
vn 0.4964 0.8157 -0.2972
vn 0.0734 0.5670 -0.8205
vn 0.4899 0.5388 -0.6853
vn 0.5275 0.5471 -0.6499
vn 0.7096 0.5652 -0.4207
vn 0.2265 0.4542 -0.8616
vn 0.0453 0.8893 -0.4551
vn 0.0510 0.8896 -0.4539
vn 0.4034 0.8461 -0.3485
vn -0.2974 0.8153 -0.4968
vn 0.7041 0.6658 -0.2467
vn 0.7079 0.6631 -0.2433
vn 0.8957 0.4446 -0.0105
vn 0.4331 0.7882 -0.4372
vn 0.1885 0.5435 -0.8179
vn 0.1817 0.5485 -0.8162
vn 0.4850 0.2676 -0.8326
vn -0.1432 0.7319 -0.6662
vn 0.7899 0.6038 0.1074
vn 0.7951 0.5981 0.1005
vn 0.9090 0.4031 -0.1062
vn 0.6018 0.7394 0.3019
vn 0.0962 0.8049 0.5855
vn 0.1057 0.7995 0.5913
vn -0.2431 0.9137 0.3257
vn 0.4209 0.5349 0.7326
vn 0.3252 0.7024 -0.6331
vn 0.3143 0.7149 -0.6246
vn 0.4873 0.4628 -0.7405
vn 0.1206 0.8826 -0.4544
vn -0.6404 -0.5949 -0.4859
vn -0.6382 -0.5994 -0.4831
vn -0.6815 -0.4922 -0.5416
vn -0.5890 -0.6890 -0.4223
vn -0.3425 0.2390 0.9086
vn -0.3484 0.1817 0.9196
vn -0.3565 0.0650 0.9320
vn -0.3225 0.3795 0.8671
vn -0.3935 0.1400 0.9086
vn -0.3840 0.0832 0.9196
vn -0.3610 -0.0315 0.9320
vn -0.4113 0.2809 0.8671
vn 0.0043 0.1400 0.9901
vn 0.0174 0.0832 0.9964
vn 0.0434 -0.0315 0.9986
vn -0.0287 0.2809 0.9593
vn 0.3501 -0.9359 0.0397
vn 0.3783 -0.9238 0.0596
vn 0.4549 -0.8830 0.1154
vn 0.2520 -0.9673 -0.0278
vn -0.7710 0.4168 0.4815
vn -0.7666 0.3641 0.5289
vn -0.7494 0.2663 0.6062
vn -0.7665 0.5277 0.3659
vn -0.3309 0.5454 0.7701
vn -0.3381 0.5572 0.7585
vn -0.4656 0.7655 0.4440
vn -0.1351 0.2245 0.9651
vn -0.5075 0.8104 -0.2926
vn -0.5071 0.8044 -0.3096
vn -0.4554 0.6068 -0.6515
vn -0.4703 0.8737 0.1245
vn 0.6255 0.6297 -0.4607
vn 0.6189 0.6415 -0.4533
vn 0.7382 0.2986 -0.6049
vn 0.4167 0.8757 -0.2441
vn -0.4615 0.8822 0.0933
vn -0.4603 0.8844 0.0775
vn -0.4118 0.8796 -0.2379
vn -0.4618 0.7980 0.3872
vn 0.4244 0.8210 -0.3820
vn 0.4344 0.8214 -0.3696
vn 0.6096 0.7857 -0.1052
vn 0.2133 0.7727 -0.5979
vt 0.998849 0.043278
vt 0.998849 0.373426
vt 0.954527 0.373426
vt 0.954527 0.043278
vt 0.910205 0.373426
vt 0.910205 0.043278
vt 0.865883 0.373426
vt 0.865883 0.043278
vt 0.821560 0.373426
vt 0.821560 0.043278
vt 0.777238 0.373426
vt 0.777238 0.043278
vt 0.732916 0.373426
vt 0.732916 0.043278
vt 0.688593 0.373426
vt 0.732916 0.688072
vt 0.688593 0.688072
vt 0.688593 0.043278
vt 0.644271 0.373426
vt 0.644271 0.043278
vt 0.688593 0.006975
vt 0.644271 0.006975
vt 0.732916 0.006975
vt 0.777238 0.006975
vt 0.821560 0.006975
vt 0.865883 0.006975
vt 0.910205 0.006975
vt 0.954527 0.006975
vt 0.998849 0.006975
vt 0.865883 0.688072
vt 0.910205 0.688072
vt 0.910205 0.997583
vt 0.865883 0.997583
vt 0.954527 0.688072
vt 0.821560 0.688072
vt 0.777238 0.688072
vt 0.644271 0.688072
vt 0.998849 0.688072
vt 0.816324 0.910446
vt 0.778815 0.889002
vt 0.800259 0.851492
vt 0.837768 0.872936
vt 0.998849 0.997583
vt 0.954527 0.997583
vt 0.644271 0.997583
vt 0.732916 0.997583
vt 0.821560 0.997583
vt 0.688593 0.997583
vt 0.777238 0.997583
vt 0.316780 0.987625
vt 0.316780 0.010049
vt 0.632275 0.010049
vt 0.632275 0.987625
vt 0.001284 0.987626
vt 0.001284 0.010049
s 1
usemtl Pine_s_1_Material
f 17/1/1 2/2/2 4/3/3 18/4/4
f 18/4/4 4/3/3 6/5/5 19/6/6
f 19/6/6 6/5/5 8/7/7 20/8/8
f 20/8/8 8/7/7 10/9/9 21/10/10
f 21/10/10 10/9/9 12/11/11 22/12/12
f 22/12/12 12/11/11 14/13/13 23/14/14
f 16/15/15 14/13/13 31/16/16 32/17/17
f 23/14/14 14/13/13 16/15/15 24/18/18
f 24/18/18 16/15/15 2/19/2 17/20/1
f 15/21/19 24/18/18 17/20/1 1/22/20
f 13/23/21 23/14/14 24/18/18 15/21/19
f 11/24/22 22/12/12 23/14/14 13/23/21
f 9/25/23 21/10/10 22/12/12 11/24/22
f 7/26/24 20/8/8 21/10/10 9/25/23
f 5/27/25 19/6/6 20/8/8 7/26/24
f 3/28/26 18/4/4 19/6/6 5/27/25
f 1/29/20 17/1/1 18/4/4 3/28/26
f 28/30/27 27/31/28 33/32/29 35/33/30
f 6/5/5 4/3/3 25/34/31 27/31/28
f 12/11/11 10/9/9 29/35/32 30/36/33
f 2/19/2 16/15/15 32/17/17 26/37/34
f 4/3/3 2/2/2 26/38/34 25/34/31
f 8/7/7 6/5/5 27/31/28 28/30/27
f 14/13/13 12/11/11 30/36/33 31/16/16
f 10/9/9 8/7/7 28/30/27 29/35/32
f 33/39/35 34/40/35 36/41/35 35/42/35
f 25/34/31 26/38/34 34/43/36 33/44/29
f 26/37/34 32/17/17 34/45/36
f 31/16/16 30/36/33 36/46/37
f 29/35/32 28/30/27 35/47/30
f 27/31/28 25/34/31 33/32/29
f 32/17/17 31/16/16 36/46/37 34/48/36
f 30/36/33 29/35/32 35/47/30 36/49/37
f 41/50/38 42/51/39 40/52/40 39/53/40
f 37/54/41 38/55/41 42/51/39 41/50/38
f 44/50/42 43/51/43 45/52/44 46/53/44
f 48/54/45 47/55/45 43/51/43 44/50/42
f 50/50/46 49/51/47 51/52/48 52/53/48
f 54/54/49 53/55/49 49/51/47 50/50/46
f 56/50/50 55/51/51 57/52/52 58/53/52
f 60/54/53 59/55/53 55/51/51 56/50/50
f 62/50/54 61/51/55 63/52/56 64/53/56
f 66/54/57 65/55/57 61/51/55 62/50/54
f 68/50/58 67/51/59 69/52/60 70/53/60
f 72/54/61 71/55/61 67/51/59 68/50/58
f 74/50/62 73/51/63 75/52/64 76/53/64
f 78/54/65 77/55/65 73/51/63 74/50/62
f 80/50/66 79/51/67 81/52/68 82/53/68
f 84/54/69 83/55/69 79/51/67 80/50/66
f 86/50/70 85/51/71 87/52/72 88/53/72
f 90/54/73 89/55/73 85/51/71 86/50/70
f 92/50/74 91/51/75 93/52/76 94/53/76
f 96/54/77 95/55/77 91/51/75 92/50/74
f 101/50/78 102/51/79 100/52/80 99/53/80
f 97/54/81 98/55/81 102/51/79 101/50/78
f 104/50/82 103/51/83 105/52/84 106/53/84
f 108/54/85 107/55/85 103/51/83 104/50/82
f 110/50/86 109/51/86 111/52/87 112/53/87
f 114/54/88 113/55/88 109/51/86 110/50/86
f 116/50/89 115/51/90 117/52/91 118/53/91
f 120/54/53 119/55/53 115/51/90 116/50/89
f 122/50/92 121/51/93 123/52/94 124/53/94
f 126/54/95 125/55/95 121/51/93 122/50/92
f 128/50/96 127/51/97 129/52/98 130/53/98
f 132/54/99 131/55/99 127/51/97 128/50/96
f 134/50/100 133/51/101 135/52/102 136/53/102
f 138/54/103 137/55/103 133/51/101 134/50/100
f 140/50/104 139/51/105 141/52/106 142/53/106
f 144/54/107 143/55/107 139/51/105 140/50/104
f 146/50/108 145/51/109 147/52/110 148/53/110
f 150/54/111 149/55/111 145/51/109 146/50/108
f 152/50/112 151/51/113 153/52/76 154/53/76
f 156/54/114 155/55/114 151/51/113 152/50/112
f 158/50/115 157/51/116 159/52/117 160/53/117
f 162/54/118 161/55/118 157/51/116 158/50/115
f 164/50/119 163/51/120 165/52/121 166/53/121
f 168/54/122 167/55/122 163/51/120 164/50/119
f 170/50/123 169/51/124 171/52/125 172/53/125
f 174/54/126 173/55/126 169/51/124 170/50/123
f 176/50/127 175/51/128 177/52/129 178/53/129
f 180/54/130 179/55/130 175/51/128 176/50/127
f 182/50/131 181/51/132 183/52/133 184/53/133
f 186/54/134 185/55/134 181/51/132 182/50/131
f 188/50/135 187/51/136 189/52/137 190/53/137
f 192/54/138 191/55/138 187/51/136 188/50/135
f 194/50/139 193/51/140 195/52/141 196/53/141
f 198/54/142 197/55/142 193/51/140 194/50/139
f 200/50/143 199/51/144 201/52/145 202/53/145
f 204/54/146 203/55/146 199/51/144 200/50/143
f 206/50/147 205/51/148 207/52/149 208/53/149
f 210/54/150 209/55/150 205/51/148 206/50/147
f 212/50/151 211/51/152 213/52/153 214/53/153
f 216/54/154 215/55/154 211/51/152 212/50/151
f 218/50/155 217/51/156 219/52/157 220/53/157
f 222/54/158 221/55/158 217/51/156 218/50/155
f 224/50/159 223/51/160 225/52/161 226/53/161
f 228/54/162 227/55/162 223/51/160 224/50/159
f 230/50/163 229/51/164 231/52/165 232/53/165
f 234/54/166 233/55/166 229/51/164 230/50/163
f 239/50/167 240/51/168 238/52/169 237/53/169
f 235/54/170 236/55/170 240/51/168 239/50/167
f 245/50/171 246/51/172 244/52/173 243/53/173
f 241/54/174 242/55/174 246/51/172 245/50/171
f 251/50/175 252/51/176 250/52/177 249/53/177
f 247/54/178 248/55/178 252/51/176 251/50/175
f 257/50/179 258/51/180 256/52/181 255/53/181
f 253/54/182 254/55/182 258/51/180 257/50/179
f 263/50/183 264/51/184 262/52/185 261/53/185
f 259/54/186 260/55/186 264/51/184 263/50/183
f 269/50/187 270/51/188 268/52/189 267/53/189
f 265/54/190 266/55/190 270/51/188 269/50/187
f 275/50/191 276/51/192 274/52/193 273/53/193
f 271/54/194 272/55/194 276/51/192 275/50/191
f 281/50/195 282/51/196 280/52/197 279/53/197
f 277/54/198 278/55/198 282/51/196 281/50/195
f 287/50/199 288/51/200 286/52/201 285/53/201
f 283/54/202 284/55/202 288/51/200 287/50/199
f 293/50/203 294/51/204 292/52/205 291/53/205
f 289/54/206 290/55/206 294/51/204 293/50/203
f 299/50/207 300/51/208 298/52/209 297/53/209
f 295/54/210 296/55/210 300/51/208 299/50/207
f 305/50/211 306/51/212 304/52/213 303/53/213
f 301/54/214 302/55/214 306/51/212 305/50/211
f 308/50/215 307/51/216 309/52/217 310/53/217
f 312/54/218 311/55/218 307/51/216 308/50/215
f 314/50/219 313/51/220 315/52/221 316/53/221
f 318/54/222 317/55/222 313/51/220 314/50/219
f 320/50/223 319/51/224 321/52/225 322/53/225
f 324/54/226 323/55/226 319/51/224 320/50/223
f 326/50/227 325/51/228 327/52/229 328/53/229
f 330/54/230 329/55/230 325/51/228 326/50/227
f 332/50/231 331/51/232 333/52/233 334/53/233
f 336/54/234 335/55/234 331/51/232 332/50/231
f 338/50/235 337/51/236 339/52/237 340/53/237
f 342/54/238 341/55/238 337/51/236 338/50/235
f 344/50/239 343/51/240 345/52/241 346/53/241
f 348/54/242 347/55/242 343/51/240 344/50/239
f 350/50/243 349/51/244 351/52/245 352/53/245
f 354/54/246 353/55/246 349/51/244 350/50/243
f 359/50/247 360/51/248 358/52/249 357/53/249
f 355/54/250 356/55/250 360/51/248 359/50/247
f 365/50/251 366/51/252 364/52/253 363/53/253
f 361/54/254 362/55/254 366/51/252 365/50/251
