# Blender 5.1.1
# www.blender.org
mtllib huge_rock.mtl
o Plane.005
v -18.536140 12.419467 -6.293934
v -17.329805 0.289012 -9.001428
v -2.585378 12.581398 -31.462143
v -5.031958 -0.442062 -29.329067
v -28.638191 11.729283 -11.466678
v -2.798181 13.315325 -29.503618
v -4.841941 13.677796 -27.370592
v -6.791450 14.405491 -23.048262
v -9.174074 14.246734 -20.926329
v -8.631271 15.007593 -16.723373
v -12.134359 14.566083 -13.913903
v -13.303440 13.680251 -12.050942
v -17.455242 12.799828 -7.992130
v -18.914070 11.116907 -5.984485
v -18.833820 10.381674 -6.080650
v -18.267260 9.436427 -6.300425
v -17.697594 6.407201 -7.768455
v -16.914595 5.739357 -9.174342
v -17.414762 4.013382 -8.722443
v -17.489567 2.377102 -8.924337
v -17.611870 1.243755 -9.035650
v -15.336672 0.008405 -10.496292
v -13.301435 -0.347133 -12.087570
v -10.930164 -0.514875 -14.219040
v -9.320774 0.078649 -15.777664
v -7.292781 -0.206001 -19.497694
v -5.609689 -0.411546 -21.542377
v -5.587450 -0.210592 -23.701441
v -4.526165 -0.991340 -26.578018
v -4.098159 1.692663 -29.474979
v -4.612944 2.727215 -29.691065
v -3.802300 3.878187 -29.848860
v -3.724614 4.812816 -29.608650
v -4.491406 5.815705 -30.163944
v -3.657651 7.519248 -30.342823
v -3.338891 9.324567 -31.012001
v -2.671417 10.672538 -32.066727
v -17.409359 11.549347 -7.666519
v -13.035481 11.370719 -11.067432
v -13.067421 12.096541 -13.355640
v -9.982399 12.617841 -16.407375
v -9.683890 12.386443 -18.750332
v -5.565920 12.350727 -23.400101
v -3.244323 11.150540 -25.818974
v -1.985426 10.975114 -30.378101
v -16.304714 9.764049 -8.452836
v -14.070297 9.774877 -10.128048
v -12.126122 10.382470 -12.714572
v -10.430104 11.146615 -15.622182
v -7.011863 10.921297 -19.539175
v -6.196662 10.614454 -22.616852
v -4.701370 10.369766 -24.642006
v -4.046919 9.973087 -26.683891
v -15.520347 8.819747 -7.948186
v -12.570419 8.466101 -10.854004
v -11.154929 8.984996 -12.849474
v -8.015281 8.924278 -16.690691
v -7.332451 9.789752 -17.964836
v -5.337824 9.595151 -21.804605
v -3.607931 8.543078 -24.663502
v -2.809968 8.214050 -26.858257
v -16.158276 6.987270 -9.220576
v -13.792969 6.645736 -10.576943
v -10.631895 7.483674 -13.615686
v -8.766486 7.432852 -16.284531
v -6.196173 7.019903 -19.384121
v -6.137395 7.864882 -21.725256
v -5.136942 6.693000 -24.291698
v -3.588504 6.291862 -27.730770
v -14.565840 6.173520 -9.824970
v -12.808867 6.093713 -11.317364
v -9.777313 6.022023 -14.928256
v -8.546222 6.097260 -16.351570
v -7.012647 6.424157 -19.140959
v -5.778097 6.167715 -22.184031
v -5.600308 6.290019 -24.348110
v -4.479928 5.522904 -27.094303
v -15.567467 3.993074 -9.780260
v -12.614882 4.147388 -12.068193
v -10.412310 5.017135 -14.497853
v -9.657495 4.830735 -15.271682
v -8.095190 5.050509 -18.179703
v -5.404578 4.518496 -21.815805
v -5.012862 5.008691 -23.405720
v -4.295023 4.233046 -26.145370
v -14.788452 2.170031 -10.624997
v -13.013746 2.035007 -12.344540
v -10.423591 2.697845 -14.732449
v -8.398294 2.619757 -16.393215
v -7.072466 3.466719 -19.775295
v -6.937071 3.259897 -21.411045
v -5.922834 2.706081 -23.698341
v -4.594675 1.918130 -27.046051
v -14.527939 0.956344 -10.302141
v -13.215172 1.573855 -11.014302
v -10.552078 0.973790 -13.580154
v -9.311452 1.441740 -16.297630
v -7.049667 1.849303 -18.218243
v -5.894279 1.546363 -21.490530
v -5.205061 1.618394 -23.205364
v -5.029528 1.898137 -25.391163
v -25.722885 0.261404 -13.253922
v -28.811237 9.688064 -11.240396
v -28.891733 8.996707 -11.358388
v -27.348106 7.751316 -11.483189
v -26.482649 5.882377 -12.489004
v -26.060671 5.190326 -12.391705
v -25.579168 3.852427 -13.005243
v -25.995430 2.374826 -13.091304
v -26.215096 1.218611 -12.941523
v -19.777454 6.422134 -8.486135
v -21.598095 6.199868 -9.364393
v -23.985693 6.271865 -9.716378
v -24.598213 5.921164 -11.751288
v -24.545618 5.465886 -11.715816
v -22.348936 5.333075 -11.375604
v -20.888872 5.234833 -9.657484
v -18.717899 5.460976 -9.596069
v -21.033302 10.630347 -6.707925
v -23.063854 10.181103 -7.458175
v -24.550560 9.678510 -9.397343
v -26.944347 9.465311 -9.946290
v -26.685606 9.214686 -10.686803
v -24.763157 9.182397 -9.379796
v -22.875572 9.930381 -8.039117
v -20.797970 9.849631 -7.480193
v -24.214790 3.809437 -11.527380
v -22.132410 3.957628 -11.611648
v -20.846695 3.965773 -10.139414
v -19.425781 3.882979 -8.614944
v -25.776405 7.767295 -9.703700
v -24.186798 7.923419 -8.301498
v -21.497631 8.069311 -8.211482
v -20.043659 8.326930 -6.886852
v -19.439964 1.240942 -9.643591
v -21.373276 1.237152 -10.022664
v -22.674747 1.255457 -11.552016
v -24.596539 1.218787 -11.966121
v -23.905279 0.261404 -12.616392
v -22.122845 0.261404 -11.919120
v -20.714169 0.264400 -10.599545
v -18.662205 0.281704 -10.431651
v -24.064333 2.449295 -12.740898
v -22.950438 2.526379 -11.005754
v -21.263901 2.417671 -10.060224
v -19.199371 2.441547 -9.909914
v -20.513100 11.915036 -6.923571
v -22.878906 11.662801 -7.128362
v -24.970280 11.443720 -8.572112
v -26.588032 11.745587 -10.535394
v -11.974986 11.740208 -38.142487
v -13.302790 -0.146260 -34.441315
v -12.917444 1.646027 -33.619911
v -11.801929 2.529265 -34.545189
v -11.809307 3.619328 -34.316475
v -11.847425 4.589313 -34.154179
v -11.175817 5.492719 -35.564011
v -10.586271 6.930937 -36.633533
v -12.902769 8.825398 -36.931351
v -11.478796 9.586351 -38.793808
v -6.015311 -0.435591 -31.554815
v -9.120708 -0.827534 -31.866272
v -10.341352 -0.643567 -33.583092
v -9.090910 1.352666 -33.486210
v -7.498250 1.278898 -32.598190
v -4.896241 1.221271 -31.260887
v -4.518004 8.780351 -33.019760
v -7.160802 8.766163 -35.445930
v -8.186968 8.351711 -36.696800
v -8.574438 9.477183 -37.548073
v -6.748805 10.270595 -36.008835
v -4.136840 10.123807 -34.356327
v -5.271822 4.480659 -31.413651
v -6.745974 4.334494 -33.652832
v -8.937286 4.401218 -33.894665
v -8.352049 5.404226 -35.188622
v -5.989529 5.426110 -33.390373
v -4.851391 5.485061 -31.860569
v -8.109280 11.878320 -37.383892
v -6.714949 11.422142 -35.507462
v -3.435119 11.697096 -34.017624
v -9.923573 2.544430 -33.572075
v -7.162294 2.317533 -32.418629
v -5.576278 2.627087 -31.292336
v -7.377907 6.880187 -35.600224
v -5.735816 6.961400 -34.071159
v -4.954872 7.040460 -32.126087
v -8.554474 3.374527 -34.025410
v -6.604504 3.470393 -32.682224
v -4.983530 3.543760 -31.481506
v -18.536140 12.419467 -6.293934
v -2.585378 12.581398 -31.462143
v -28.638191 11.729283 -11.466678
v -2.798181 13.315325 -29.503618
v -4.841941 13.677796 -27.370592
v -6.791450 14.405491 -23.048262
v -9.174074 14.246734 -20.926329
v -8.631271 15.007593 -16.723373
v -12.134359 14.566083 -13.913903
v -13.303440 13.680251 -12.050942
v -17.455242 12.799828 -7.992130
v -20.513100 11.915036 -6.923571
v -22.878906 11.662801 -7.128362
v -24.970280 11.443720 -8.572112
v -26.588032 11.745587 -10.535394
v -11.974986 11.740208 -38.142487
v -8.109280 11.878320 -37.383892
v -6.714949 11.422142 -35.507462
v -3.435119 11.697096 -34.017624
v -17.917454 13.747607 -11.077348
v -6.954319 13.751848 -28.732719
v -24.440262 13.132999 -14.848396
v -7.111557 14.195138 -27.439203
v -8.610964 14.868855 -25.734055
v -8.683636 15.340885 -22.488707
v -9.870466 15.436509 -20.649746
v -11.468270 15.341020 -18.533680
v -13.216881 15.248627 -15.719119
v -14.689994 14.586955 -14.904800
v -17.029575 13.963530 -12.476106
v -19.183067 13.447169 -11.772607
v -20.597630 13.133683 -12.095294
v -21.941519 13.171866 -12.960675
v -23.191601 13.118283 -14.328143
v -13.077540 13.364773 -32.213196
v -10.876442 13.168242 -31.965277
v -9.886831 13.052446 -30.666117
v -7.765450 13.205697 -29.994085
v -12.357351 13.892478 -25.031933
v -19.879026 13.280532 -19.010475
v -12.925418 14.091207 -23.770987
v -13.444365 14.334887 -22.342064
v -14.437010 14.259804 -20.520710
v -15.783688 13.872179 -19.056414
v -17.857048 13.536155 -17.598398
v -18.818977 13.355565 -18.103836
v -15.232293 13.291563 -26.395746
v -13.808683 13.512215 -25.935524
vn 0.9937 -0.0969 0.0570
vn -0.3795 -0.0501 0.9238
vn 0.9549 0.2291 -0.1890
vn 0.7485 -0.6546 0.1062
vn 0.9687 0.2414 -0.0588
vn 0.9093 -0.3668 -0.1964
vn 0.9969 -0.0776 -0.0111
vn 0.9784 0.1040 0.1786
vn 0.9482 -0.3141 0.0484
vn 0.9243 0.3480 0.1566
vn 0.7874 0.0504 0.6144
vn 0.6087 0.3206 0.7258
vn 0.9683 -0.0562 0.2434
vn 0.6682 -0.1844 0.7208
vn 0.9210 -0.3889 0.0246
vn 0.6527 0.4147 0.6341
vn 0.7646 0.5563 0.3254
vn 0.8132 0.4534 0.3649
vn 0.7082 0.0876 0.7006
vn 0.6092 0.0484 0.7915
vn 0.9020 0.1650 0.3990
vn 0.6773 0.3855 0.6266
vn 0.7327 0.5545 0.3946
vn 0.7501 0.4774 0.4577
vn 0.7397 -0.0948 0.6662
vn 0.6982 -0.6670 0.2602
vn 0.5921 0.5166 0.6185
vn 0.5814 0.5287 0.6184
vn 0.6763 0.4264 0.6007
vn 0.6945 0.4680 0.5464
vn 0.6517 0.4938 0.5757
vn 0.8032 0.5211 0.2885
vn 0.7344 0.5947 0.3271
vn 0.8274 0.5272 0.1934
vn 0.5288 -0.4224 0.7362
vn 0.5180 -0.4603 0.7210
vn 0.7491 -0.2482 0.6141
vn 0.7847 -0.1327 0.6055
vn 0.8039 -0.0678 0.5909
vn 0.9495 -0.0222 0.3131
vn 0.7357 -0.4106 0.5386
vn 0.7636 -0.5182 0.3852
vn 0.5122 -0.2803 0.8118
vn 0.5625 0.3039 0.7689
vn 0.7330 -0.0238 0.6798
vn 0.7974 0.0088 0.6034
vn 0.8031 -0.1966 0.5625
vn 0.9556 -0.2100 0.2066
vn 0.9581 -0.1121 0.2635
vn 0.6907 -0.5953 0.4105
vn 0.3793 -0.0283 0.9248
vn 0.6088 -0.2481 0.7535
vn 0.7550 -0.1812 0.6302
vn 0.7336 -0.1191 0.6691
vn 0.8311 -0.3688 0.4162
vn 0.8630 0.0196 0.5048
vn 0.9012 0.3847 0.1995
vn 0.8950 0.4055 0.1858
vn 0.5068 -0.1535 0.8483
vn 0.6394 -0.1529 0.7535
vn 0.7241 -0.1448 0.6743
vn 0.6557 -0.0450 0.7537
vn 0.8739 0.2124 0.4373
vn 0.8059 -0.3458 0.4805
vn 0.7920 -0.5339 0.2960
vn 0.8683 -0.3244 0.3752
vn 0.4610 0.1066 0.8810
vn 0.4053 0.6494 0.6434
vn 0.5508 0.5889 0.5915
vn 0.8025 -0.0319 0.5958
vn 0.8172 0.0774 0.5712
vn 0.9045 0.3775 0.1987
vn 0.7956 0.5405 0.2736
vn 0.8205 0.5449 0.1729
vn 0.4511 -0.1980 0.8702
vn 0.5236 -0.4756 0.7069
vn 0.5812 -0.4270 0.6927
vn 0.8396 -0.1360 0.5259
vn 0.7836 -0.1893 0.5918
vn 0.8663 -0.1492 0.4767
vn 0.9829 -0.0510 0.1769
vn 0.9682 -0.0617 0.2426
vn -0.3233 -0.6701 0.6682
vn -0.5639 -0.2641 0.7825
vn -0.5225 -0.2128 0.8257
vn -0.3452 -0.5831 0.7354
vn -0.4546 -0.3353 0.8252
vn -0.4114 -0.7031 0.5801
vn -0.4732 0.2190 0.8533
vn -0.3240 0.4288 0.8433
vn -0.4058 0.1232 0.9056
vn -0.1309 0.1444 0.9808
vn -0.6302 -0.1985 0.7506
vn -0.5760 0.1328 0.8066
vn -0.3644 0.3051 0.8798
vn -0.2144 0.0144 0.9766
vn -0.6221 -0.3020 0.7224
vn -0.5308 -0.0577 0.8455
vn -0.1284 -0.5392 0.8323
vn -0.4096 -0.5492 0.7285
vn -0.0616 -0.5893 0.8056
vn -0.5661 -0.6818 0.4633
vn -0.1993 -0.4365 0.8773
vn -0.4147 -0.3200 0.8518
vn -0.5698 0.4012 0.7172
vn -0.4525 -0.0850 0.8877
vn -0.4572 -0.5334 0.7116
vn -0.1030 -0.6239 0.7747
vn -0.5737 -0.6136 0.5425
vn -0.2326 -0.5620 0.7938
vn -0.4334 -0.0964 0.8960
vn -0.4560 -0.1789 0.8718
vn -0.3116 0.0798 0.9469
vn -0.5965 0.2528 0.7617
vn -0.1199 0.4316 0.8941
vn -0.3995 0.2482 0.8825
vn -0.7386 -0.2430 0.6288
vn -0.0596 -0.0264 0.9979
vn -0.2881 -0.5205 0.8038
vn -0.1124 -0.8069 0.5799
vn -0.4924 -0.5139 0.7025
vn -0.2658 -0.6790 0.6843
vn -0.0869 -0.8641 0.4959
vn -0.1052 -0.6468 0.7554
vn -0.2886 -0.8354 0.4678
vn -0.2948 -0.8548 0.4271
vn 0.1615 0.1661 -0.9728
vn 0.0451 -0.8283 -0.5585
vn 0.0233 -0.8221 -0.5688
vn 0.2790 0.1711 -0.9449
vn 0.1490 -0.4495 -0.8808
vn 0.1826 -0.5216 -0.8334
vn 0.2193 -0.2654 -0.9389
vn 0.1347 -0.2699 -0.9534
vn 0.0992 0.1649 -0.9813
vn 0.7511 0.1887 -0.6327
vn 0.7395 -0.1522 -0.6557
vn 0.3428 -0.3003 -0.8901
vn 0.8209 -0.3676 -0.4370
vn 0.7775 -0.1706 -0.6053
vn 0.7236 -0.0269 -0.6897
vn 0.7236 -0.5591 -0.4047
vn 0.5566 -0.4607 -0.6913
vn 0.3593 -0.6058 -0.7099
vn 0.8953 -0.2508 -0.3680
vn 0.8633 -0.1857 -0.4694
vn 0.5694 -0.4755 -0.6706
vn 0.8070 0.3466 -0.4781
vn 0.4978 0.1221 -0.8587
vn 0.4283 0.1329 -0.8938
vn 0.9089 -0.0956 -0.4060
vn 0.4632 0.1445 -0.8744
vn 0.7261 0.0267 -0.6871
vn 0.8817 -0.0801 -0.4650
vn 0.7415 -0.4594 -0.4890
vn 0.3288 -0.5783 -0.7466
vn 0.7536 -0.5756 -0.3174
vn 0.4932 -0.5736 -0.6540
vn 0.7279 -0.3300 -0.6011
vn 0.8380 -0.4412 -0.3210
vn 0.2806 -0.3101 -0.9084
vn 0.5645 -0.4973 -0.6589
vn -0.1423 0.9113 0.3863
vn 0.0428 0.9630 0.2661
vn -0.1119 0.9609 0.2534
vn -0.3158 0.9251 0.2108
vn 0.0364 0.9410 -0.3365
vn -0.1752 0.9576 0.2285
vn 0.2235 0.9731 -0.0564
vn 0.1390 0.9523 0.2717
vn -0.1956 0.9566 0.2161
vn 0.3301 0.9420 -0.0611
vn 0.0480 0.9713 -0.2331
vn -0.1772 0.9583 0.2240
vn 0.0119 0.9346 -0.3555
vn 0.6234 0.5349 0.5703
vn 0.3290 0.9412 -0.0774
vn 0.4061 0.9134 -0.0284
vn 0.0445 0.9530 -0.2998
vn 0.0904 0.9800 0.1774
vn -0.2904 0.9164 -0.2753
vn -0.1290 0.9710 -0.2014
vn -0.1250 0.9702 -0.2076
vn -0.1289 0.9709 -0.2018
vn -0.2323 0.9726 0.0027
vn -0.2091 0.9773 -0.0327
vn -0.2078 0.9489 -0.2373
vn -0.2086 0.9604 -0.1846
vn -0.1405 0.9893 -0.0396
vn -0.3012 0.9407 -0.1563
vn -0.4288 0.9024 -0.0424
vn -0.2893 0.9567 -0.0331
vn -0.1403 0.9814 0.1308
vn -0.0020 0.9994 0.0332
vn 0.0654 0.9464 -0.3164
vn -0.1740 0.9845 -0.0206
vn -0.3042 0.8254 -0.4755
vn -0.2878 0.9504 -0.1177
vn -0.1051 0.9733 -0.2041
vn -0.0766 0.9706 -0.2284
vn -0.1242 0.9700 -0.2088
vn -0.2107 0.9687 -0.1311
vn -0.1416 0.9864 0.0839
vn -0.1061 0.9756 -0.1920
vn 0.0732 0.8972 -0.4355
vn -0.2457 0.9685 -0.0411
vn -0.1544 0.9863 -0.0585
vn -0.0141 0.9977 0.0659
vn -0.2390 0.9601 -0.1450
vn -0.2743 0.9553 -0.1101
vn -0.2338 0.9631 -0.1331
vn 0.1029 0.9946 -0.0114
vn 0.0863 0.9960 0.0230
vn -0.3175 0.9474 -0.0412
vn -0.2310 0.9672 -0.1057
vn -0.0492 0.9988 0.0058
vn -0.0624 0.9980 -0.0096
vt 0.888889 0.888889
vt 1.000000 0.888889
vt 1.000000 1.000000
vt 0.888889 1.000000
vt 0.555556 0.000000
vt 0.444445 0.000000
vt 0.444444 0.000000
vt 0.000000 0.888889
vt 0.111111 0.888889
vt 0.111111 1.000000
vt 0.000000 1.000000
vt 0.222222 0.888889
vt 0.222222 1.000000
vt 0.333333 0.888889
vt 0.333333 1.000000
vt 0.444444 0.888889
vt 0.444444 1.000000
vt 0.555556 0.888889
vt 0.555556 1.000000
vt 0.666667 0.888889
vt 0.666667 1.000000
vt 0.777778 0.888889
vt 0.777778 1.000000
vt 0.000000 0.000000
vt 0.111111 0.000000
vt 0.111111 0.111111
vt 0.000000 0.111111
vt 0.111111 0.222222
vt 0.000000 0.222222
vt 0.111111 0.333333
vt 0.000000 0.333333
vt 0.111111 0.444444
vt 0.000000 0.444444
vt 0.111111 0.555556
vt 0.000000 0.555556
vt 0.111111 0.666667
vt 0.000000 0.666667
vt 0.111111 0.777778
vt 0.000000 0.777778
vt 0.222222 0.000000
vt 0.222222 0.111111
vt 0.222222 0.222222
vt 0.222222 0.333333
vt 0.222222 0.444444
vt 0.222222 0.555556
vt 0.222222 0.666667
vt 0.222222 0.777778
vt 0.333333 0.000000
vt 0.333333 0.111111
vt 0.333333 0.222222
vt 0.333333 0.333333
vt 0.333333 0.444444
vt 0.333333 0.555556
vt 0.333333 0.666667
vt 0.333333 0.777778
vt 0.444444 0.111111
vt 0.444444 0.222222
vt 0.444444 0.333333
vt 0.444444 0.444444
vt 0.444444 0.555556
vt 0.444444 0.666667
vt 0.444444 0.777778
vt 0.555556 0.111111
vt 0.555556 0.222222
vt 0.555556 0.333333
vt 0.555556 0.444444
vt 0.555556 0.555556
vt 0.555556 0.666667
vt 0.555556 0.777778
vt 0.666667 0.000000
vt 0.666667 0.111111
vt 0.666667 0.222222
vt 0.666667 0.333333
vt 0.666667 0.444444
vt 0.666667 0.555556
vt 0.666667 0.666667
vt 0.666667 0.777778
vt 0.777778 0.000000
vt 0.777778 0.111111
vt 0.777778 0.222222
vt 0.777778 0.333333
vt 0.777778 0.444444
vt 0.777778 0.555556
vt 0.777778 0.666667
vt 0.777778 0.777778
vt 0.888889 0.000000
vt 0.888889 0.111111
vt 0.888889 0.222222
vt 0.888889 0.333333
vt 0.888889 0.444444
vt 0.888889 0.555556
vt 0.888889 0.666667
vt 0.888889 0.777778
vt 1.000000 0.000000
vt 1.000000 0.111111
vt 1.000000 0.222222
vt 1.000000 0.333333
vt 1.000000 0.444444
vt 1.000000 0.555556
vt 1.000000 0.666667
vt 1.000000 0.777778
s 1
usemtl Material.014
f 101/1/1 29/2/1 4/3/1 30/4/1
f 115/5/2 114/6/2 106/7/2 107/5/2
f 6/8/3 45/9/3 37/10/3 3/11/3
f 45/9/4 53/12/4 36/13/4 37/10/4
f 53/12/5 61/14/5 35/15/5 36/13/5
f 61/14/6 69/16/6 34/17/6 35/15/6
f 69/16/7 77/18/7 33/19/7 34/17/7
f 77/18/8 85/20/8 32/21/8 33/19/8
f 85/20/9 93/22/9 31/23/9 32/21/9
f 93/22/10 101/1/10 30/4/10 31/23/10
f 1/24/11 14/25/11 38/26/11 13/27/11
f 13/27/12 38/26/12 39/28/12 12/29/12
f 12/29/13 39/28/13 40/30/13 11/31/13
f 11/31/14 40/30/14 41/32/14 10/33/14
f 10/33/15 41/32/15 42/34/15 9/35/15
f 9/35/16 42/34/16 43/36/16 8/37/16
f 8/37/17 43/36/17 44/38/17 7/39/17
f 7/39/18 44/38/18 45/9/18 6/8/18
f 14/25/19 15/40/19 46/41/19 38/26/19
f 38/26/20 46/41/20 47/42/20 39/28/20
f 39/28/21 47/42/21 48/43/21 40/30/21
f 40/30/22 48/43/22 49/44/22 41/32/22
f 41/32/23 49/44/23 50/45/23 42/34/23
f 42/34/24 50/45/24 51/46/24 43/36/24
f 43/36/25 51/46/25 52/47/25 44/38/25
f 44/38/26 52/47/26 53/12/26 45/9/26
f 15/40/27 16/48/27 54/49/27 46/41/27
f 46/41/28 54/49/28 55/50/28 47/42/28
f 47/42/29 55/50/29 56/51/29 48/43/29
f 48/43/30 56/51/30 57/52/30 49/44/30
f 49/44/31 57/52/31 58/53/31 50/45/31
f 50/45/32 58/53/32 59/54/32 51/46/32
f 51/46/33 59/54/33 60/55/33 52/47/33
f 52/47/34 60/55/34 61/14/34 53/12/34
f 16/48/35 17/7/35 62/56/35 54/49/35
f 54/49/36 62/56/36 63/57/36 55/50/36
f 55/50/37 63/57/37 64/58/37 56/51/37
f 56/51/38 64/58/38 65/59/38 57/52/38
f 57/52/39 65/59/39 66/60/39 58/53/39
f 58/53/40 66/60/40 67/61/40 59/54/40
f 59/54/41 67/61/41 68/62/41 60/55/41
f 60/55/42 68/62/42 69/16/42 61/14/42
f 17/7/43 18/5/43 70/63/43 62/56/43
f 62/56/44 70/63/44 71/64/44 63/57/44
f 63/57/45 71/64/45 72/65/45 64/58/45
f 64/58/46 72/65/46 73/66/46 65/59/46
f 65/59/47 73/66/47 74/67/47 66/60/47
f 66/60/48 74/67/48 75/68/48 67/61/48
f 67/61/49 75/68/49 76/69/49 68/62/49
f 68/62/50 76/69/50 77/18/50 69/16/50
f 18/5/51 19/70/51 78/71/51 70/63/51
f 70/63/52 78/71/52 79/72/52 71/64/52
f 71/64/53 79/72/53 80/73/53 72/65/53
f 72/65/54 80/73/54 81/74/54 73/66/54
f 73/66/55 81/74/55 82/75/55 74/67/55
f 74/67/56 82/75/56 83/76/56 75/68/56
f 75/68/57 83/76/57 84/77/57 76/69/57
f 76/69/58 84/77/58 85/20/58 77/18/58
f 19/70/59 20/78/59 86/79/59 78/71/59
f 78/71/60 86/79/60 87/80/60 79/72/60
f 79/72/61 87/80/61 88/81/61 80/73/61
f 80/73/62 88/81/62 89/82/62 81/74/62
f 81/74/63 89/82/63 90/83/63 82/75/63
f 82/75/64 90/83/64 91/84/64 83/76/64
f 83/76/65 91/84/65 92/85/65 84/77/65
f 84/77/66 92/85/66 93/22/66 85/20/66
f 20/78/67 21/86/67 94/87/67 86/79/67
f 86/79/68 94/87/68 95/88/68 87/80/68
f 87/80/69 95/88/69 96/89/69 88/81/69
f 88/81/70 96/89/70 97/90/70 89/82/70
f 89/82/71 97/90/71 98/91/71 90/83/71
f 90/83/72 98/91/72 99/92/72 91/84/72
f 91/84/73 99/92/73 100/93/73 92/85/73
f 92/85/74 100/93/74 101/1/74 93/22/74
f 21/86/75 2/94/75 22/95/75 94/87/75
f 94/87/76 22/95/76 23/96/76 95/88/76
f 95/88/77 23/96/77 24/97/77 96/89/77
f 96/89/78 24/97/78 25/98/78 97/90/78
f 97/90/79 25/98/79 26/99/79 98/91/79
f 98/91/80 26/99/80 27/100/80 99/92/80
f 99/92/81 27/100/81 28/101/81 100/93/81
f 100/93/82 28/101/82 29/2/82 101/1/82
f 123/40/83 122/25/83 103/25/83 104/40/83
f 127/70/84 115/5/84 107/5/84 108/70/84
f 131/48/85 123/40/85 104/40/85 105/48/85
f 139/94/86 138/86/86 110/86/86 102/94/86
f 143/78/87 127/70/87 108/70/87 109/78/87
f 114/6/88 131/48/88 105/48/88 106/7/88
f 122/25/89 150/24/89 5/24/89 103/25/89
f 138/86/90 143/78/90 109/78/90 110/86/90
f 21/86/91 20/78/91 146/78/91 135/86/91
f 135/86/92 146/78/92 145/78/92 136/86/92
f 136/86/93 145/78/93 144/78/93 137/86/93
f 137/86/94 144/78/94 143/78/94 138/86/94
f 14/25/95 1/24/95 147/24/95 119/25/95
f 119/25/96 147/24/96 148/24/96 120/25/96
f 120/25/97 148/24/97 149/24/97 121/25/97
f 121/25/98 149/24/98 150/24/98 122/25/98
f 17/7/99 16/48/99 134/48/99 111/7/99
f 111/7/100 134/48/100 133/48/100 112/7/100
f 112/7/101 133/48/101 132/48/101 113/6/101
f 113/6/102 132/48/102 131/48/102 114/6/102
f 20/78/103 19/70/103 130/70/103 146/78/103
f 146/78/104 130/70/104 129/70/104 145/78/104
f 145/78/105 129/70/105 128/70/105 144/78/105
f 144/78/106 128/70/106 127/70/106 143/78/106
f 2/94/107 21/86/107 135/86/107 142/94/107
f 142/94/108 135/86/108 136/86/108 141/94/108
f 141/94/109 136/86/109 137/86/109 140/94/109
f 140/94/110 137/86/110 138/86/110 139/94/110
f 16/48/111 15/40/111 126/40/111 134/48/111
f 134/48/112 126/40/112 125/40/112 133/48/112
f 133/48/113 125/40/113 124/40/113 132/48/113
f 132/48/114 124/40/114 123/40/114 131/48/114
f 19/70/115 18/5/115 118/5/115 130/70/115
f 130/70/116 118/5/116 117/5/116 129/70/116
f 129/70/117 117/5/117 116/5/117 128/70/117
f 128/70/118 116/5/118 115/5/118 127/70/118
f 15/40/119 14/25/119 119/25/119 126/40/119
f 126/40/120 119/25/120 120/25/120 125/40/120
f 125/40/121 120/25/121 121/25/121 124/40/121
f 124/40/122 121/25/122 122/25/122 123/40/122
f 18/5/123 17/7/123 111/7/123 118/5/123
f 118/5/124 111/7/124 112/7/124 117/5/124
f 117/5/125 112/7/125 113/6/125 116/5/125
f 116/5/126 113/6/126 114/6/126 115/5/126
f 164/4/127 163/3/127 152/3/127 153/4/127
f 170/10/128 169/13/128 159/13/128 160/10/128
f 176/17/129 175/19/129 156/19/129 157/17/129
f 179/11/130 170/10/130 160/10/130 151/11/130
f 182/23/131 164/4/131 153/4/131 154/23/131
f 185/15/132 176/17/132 157/17/132 158/15/132
f 188/21/133 182/23/133 154/23/133 155/21/133
f 169/13/134 185/15/134 158/15/134 159/13/134
f 175/19/135 188/21/135 155/21/135 156/19/135
f 33/19/136 32/21/136 190/21/136 173/19/136
f 173/19/137 190/21/137 189/21/137 174/19/137
f 174/19/138 189/21/138 188/21/138 175/19/138
f 36/13/139 35/15/139 187/15/139 167/13/139
f 167/13/140 187/15/140 186/15/140 168/13/140
f 168/13/141 186/15/141 185/15/141 169/13/141
f 32/21/142 31/23/142 184/23/142 190/21/142
f 190/21/143 184/23/143 183/23/143 189/21/143
f 189/21/144 183/23/144 182/23/144 188/21/144
f 35/15/145 34/17/145 178/17/145 187/15/145
f 187/15/146 178/17/146 177/17/146 186/15/146
f 186/15/147 177/17/147 176/17/147 185/15/147
f 31/23/148 30/4/148 166/4/148 184/23/148
f 184/23/149 166/4/149 165/4/149 183/23/149
f 183/23/150 165/4/150 164/4/150 182/23/150
f 3/11/151 37/10/151 172/10/151 181/11/151
f 181/11/152 172/10/152 171/10/152 180/11/152
f 180/11/153 171/10/153 170/10/153 179/11/153
f 34/17/154 33/19/154 173/19/154 178/17/154
f 178/17/155 173/19/155 174/19/155 177/17/155
f 177/17/156 174/19/156 175/19/156 176/17/156
f 37/10/157 36/13/157 167/13/157 172/10/157
f 172/10/158 167/13/158 168/13/158 171/10/158
f 171/10/159 168/13/159 169/13/159 170/10/159
f 30/4/160 4/3/160 161/3/160 166/4/160
f 166/4/161 161/3/161 162/3/161 165/4/161
f 165/4/162 162/3/162 163/3/162 164/4/162
usemtl Material.015
f 200/29/163 199/31/163 218/31/163 219/29/163
f 201/27/164 200/29/164 219/29/164 220/27/164
f 193/24/165 205/24/165 224/24/165 212/24/165
f 202/24/166 191/24/166 210/24/166 221/24/166
f 194/8/167 192/11/167 211/11/167 213/8/167
f 203/24/168 202/24/168 221/24/168 222/24/168
f 195/39/169 194/8/169 213/8/169 214/39/169
f 191/24/170 201/27/170 220/27/170 210/24/170
f 204/24/171 203/24/171 222/24/171 223/24/171
f 196/37/172 195/39/172 214/39/172 215/37/172
f 207/11/173 206/11/173 225/11/173 226/11/173
f 205/24/174 204/24/174 223/24/174 224/24/174
f 192/11/175 209/11/175 228/11/175 211/11/175
f 197/35/176 196/37/176 215/37/176 216/35/176
f 208/11/177 207/11/177 226/11/177 227/11/177
f 198/33/178 197/35/178 216/35/178 217/33/178
f 209/11/179 208/11/179 227/11/179 228/11/179
f 199/31/180 198/33/180 217/33/180 218/31/180
f 229/11/181 231/39/181 214/39/181
f 227/11/182 238/11/183 229/11/184
f 220/27/185 221/24/185 210/24/185
f 222/24/186 221/24/186 235/24/186
f 215/37/187 231/39/187 232/37/187
f 216/35/188 215/37/188 232/37/188
f 225/11/189 237/11/189 238/11/189
f 217/33/190 234/31/190 218/31/190
f 219/29/191 218/31/191 234/29/191
f 219/29/192 235/27/192 220/27/192
f 234/29/193 233/33/193 230/24/193
f 230/24/194 212/24/194 224/24/194
f 214/39/195 213/8/195 211/11/195
f 235/27/196 234/29/196 236/24/196
f 211/11/197 229/11/197 214/39/197
f 233/33/198 232/37/198 237/11/198
f 232/37/199 231/39/199 237/11/199
f 237/11/200 231/39/200 238/11/200
f 231/39/201 229/11/184 238/11/183
f 237/11/202 230/24/202 233/33/202
f 230/24/203 236/24/203 234/29/203
f 229/11/204 211/11/204 227/11/204
f 211/11/205 228/11/205 227/11/205
f 220/27/206 235/24/206 221/24/206
f 236/24/207 223/24/207 235/24/207
f 223/24/208 222/24/208 235/24/208
f 215/37/209 214/39/209 231/39/209
f 233/33/210 217/33/210 232/37/210
f 217/33/211 216/35/211 232/37/211
f 238/11/212 227/11/212 225/11/212
f 227/11/213 226/11/213 225/11/213
f 217/33/214 233/33/214 234/31/214
f 219/29/215 234/29/215 235/27/215
f 224/24/216 223/24/216 236/24/216
f 236/24/217 230/24/217 224/24/217
