# Blender 5.1.1
# www.blender.org
mtllib ROCK_5.mtl
o Object_28
v 3.467333 7.028760 -1.144047
v 3.467333 7.028760 -1.144047
v 3.467333 7.028760 -1.144047
v 3.467333 7.028760 -1.144047
v 3.467333 7.028760 -1.144047
v 2.603179 4.765340 -0.911917
v 2.603179 4.765340 -0.911917
v 2.603179 4.765340 -0.911917
v 2.603179 4.765340 -0.911917
v 2.603179 4.765340 -0.911917
v 2.603179 4.765340 -0.911917
v 2.603179 4.765340 -0.911917
v 3.321871 7.930459 -1.179265
v 3.321871 7.930459 -1.179265
v 3.321871 7.930459 -1.179265
v 3.321871 7.930459 -1.179265
v 3.321871 7.930459 -1.179265
v 2.836083 7.851832 -1.649718
v 2.836083 7.851832 -1.649718
v 2.836083 7.851832 -1.649718
v 2.836083 7.851832 -1.649718
v 2.836083 7.851832 -1.649718
v 2.836083 7.851832 -1.649718
v 2.597626 8.389180 -0.974051
v 2.597626 8.389180 -0.974051
v 2.597626 8.389180 -0.974051
v 2.597626 8.389180 -0.974051
v 2.630054 8.389399 0.971564
v 2.630054 8.389399 0.971564
v 2.630054 8.389399 0.971564
v 2.630054 8.389399 0.971564
v 2.630054 8.389399 0.971564
v 2.634978 8.058297 1.491191
v 2.634978 8.058297 1.491191
v 2.634978 8.058297 1.491191
v 2.634978 8.058297 1.491191
v 2.861121 7.407511 1.659350
v 2.861121 7.407511 1.659350
v 2.861121 7.407511 1.659350
v 2.861121 7.407511 1.659350
v 2.861121 7.407511 1.659350
v 2.861121 7.407511 1.659350
v 2.358756 5.096350 1.563680
v 2.358756 5.096350 1.563680
v 2.358756 5.096350 1.563680
v 2.358756 5.096350 1.563680
v 2.358756 5.096350 1.563680
v 1.388576 4.766309 1.524632
v 1.388576 4.766309 1.524632
v 1.388576 4.766309 1.524632
v 1.388576 4.766309 1.524632
v 1.388576 4.766309 1.524632
v 1.053881 3.844040 1.219419
v 1.053881 3.844040 1.219419
v 1.053881 3.844040 1.219419
v 1.053881 3.844040 1.219419
v 1.053881 3.844040 1.219419
v 1.053881 3.844040 1.219419
v 1.328993 4.216285 0.942363
v 1.328993 4.216285 0.942363
v 1.328993 4.216285 0.942363
v 1.328993 4.216285 0.942363
v 1.328993 4.216285 0.942363
v 1.328993 4.216285 0.942363
v 1.002614 2.604851 1.425938
v 1.002614 2.604851 1.425938
v 1.002614 2.604851 1.425938
v 1.002614 2.604851 1.425938
v 1.002614 2.604851 1.425938
v 1.002614 2.604851 1.425938
v 1.467561 2.725825 0.947663
v 1.467561 2.725825 0.947663
v 1.467561 2.725825 0.947663
v 1.467561 2.725825 0.947663
v 1.467561 2.725825 0.947663
v 2.275466 1.781307 1.273036
v 2.275466 1.781307 1.273036
v 2.275466 1.781307 1.273036
v 2.275466 1.781307 1.273036
v 2.275466 1.781307 1.273036
v 2.275466 1.781307 1.273036
v 2.030197 1.473188 2.004711
v 2.030197 1.473188 2.004711
v 2.030197 1.473188 2.004711
v 2.030197 1.473188 2.004711
v 2.030197 1.473188 2.004711
v 2.030197 1.473188 2.004711
v 2.414921 1.211722 1.760747
v 2.414921 1.211722 1.760747
v 2.414921 1.211722 1.760747
v 2.414921 1.211722 1.760747
v 2.414921 1.211722 1.760747
v 1.714280 -0.174347 1.948423
v 1.714280 -0.174347 1.948423
v 1.714280 -0.174347 1.948423
v 1.714280 -0.174347 1.948423
v 1.714280 -0.174347 1.948423
v 1.714280 -0.174347 1.948423
v 1.604301 -1.907401 1.947886
v 1.604301 -1.907401 1.947886
v 1.604301 -1.907401 1.947886
v 1.604301 -1.907401 1.947886
v 1.604301 -1.907401 1.947886
v 1.604301 -1.907401 1.947886
v 1.789326 -1.943838 -1.727069
v 1.789326 -1.943838 -1.727069
v 1.789326 -1.943838 -1.727069
v 1.789326 -1.943838 -1.727069
v 1.789326 -1.943838 -1.727069
v 1.789326 -1.943838 -1.727069
v 1.789326 -1.943838 -1.727069
v 2.101606 -1.781002 -1.296928
v 2.101606 -1.781002 -1.296928
v 2.101606 -1.781002 -1.296928
v 2.101606 -1.781002 -1.296928
v 2.101606 -1.781002 -1.296928
v 2.149772 0.324105 -1.342931
v 2.149772 0.324105 -1.342931
v 2.149772 0.324105 -1.342931
v 2.149772 0.324105 -1.342931
v 2.431309 1.281466 -1.744779
v 2.431309 1.281466 -1.744779
v 2.431309 1.281466 -1.744779
v 2.431309 1.281466 -1.744779
v 2.431309 1.281466 -1.744779
v 2.431309 1.281466 -1.744779
v 2.086747 -1.799526 1.325419
v 2.086747 -1.799526 1.325419
v 2.086747 -1.799526 1.325419
v 2.086747 -1.799526 1.325419
v 2.086747 -1.799526 1.325419
v 2.146692 0.161069 1.322990
v 2.146692 0.161069 1.322990
v 2.146692 0.161069 1.322990
v 2.146692 0.161069 1.322990
v 2.146692 0.161069 1.322990
v 1.127025 3.628849 -0.966811
v 1.127025 3.628849 -0.966811
v 1.127025 3.628849 -0.966811
v 1.127025 3.628849 -0.966811
v 1.127025 3.628849 -0.966811
v 1.322052 4.223859 -0.953646
v 1.322052 4.223859 -0.953646
v 1.322052 4.223859 -0.953646
v 1.322052 4.223859 -0.953646
v 1.288162 2.925530 -1.123292
v 1.288162 2.925530 -1.123292
v 1.288162 2.925530 -1.123292
v 1.288162 2.925530 -1.123292
v 1.288162 2.925530 -1.123292
v 1.288162 2.925530 -1.123292
v 2.268563 1.777831 -1.281092
v 2.268563 1.777831 -1.281092
v 2.268563 1.777831 -1.281092
v 2.268563 1.777831 -1.281092
v 2.268563 1.777831 -1.281092
v 2.268563 1.777831 -1.281092
v 1.370170 2.298822 -1.406194
v 1.370170 2.298822 -1.406194
v 1.370170 2.298822 -1.406194
v 1.370170 2.298822 -1.406194
v 1.361327 4.704662 -1.488388
v 1.361327 4.704662 -1.488388
v 1.361327 4.704662 -1.488388
v 1.361327 4.704662 -1.488388
v 2.353506 5.092975 -1.561023
v 2.353506 5.092975 -1.561023
v 2.353506 5.092975 -1.561023
v 2.353506 5.092975 -1.561023
v 2.353506 5.092975 -1.561023
v -0.022945 7.304360 1.558994
v -0.022945 7.304360 1.558994
v -0.022945 7.304360 1.558994
v -0.022945 7.304360 1.558994
v -0.022945 7.304360 1.558994
v -0.022945 7.304360 1.558994
v 0.726266 2.082482 1.677316
v 0.726266 2.082482 1.677316
v 0.726266 2.082482 1.677316
v 0.726266 2.082482 1.677316
v 0.726266 2.082482 1.677316
v 0.732779 1.015121 2.239121
v 0.732779 1.015121 2.239121
v 0.732779 1.015121 2.239121
v 0.732779 1.015121 2.239121
v 0.732779 1.015121 2.239121
v 0.732779 1.015121 2.239121
v 0.732779 1.015121 2.239121
v 0.250441 -1.730459 2.118447
v 0.250441 -1.730459 2.118447
v 0.250441 -1.730459 2.118447
v 0.250441 -1.730459 2.118447
v 1.275725 -1.814859 -2.073158
v 1.275725 -1.814859 -2.073158
v 1.275725 -1.814859 -2.073158
v 1.275725 -1.814859 -2.073158
v 0.707767 1.081562 -2.220947
v 0.707767 1.081562 -2.220947
v 0.707767 1.081562 -2.220947
v 0.707767 1.081562 -2.220947
v 0.707767 1.081562 -2.220947
v 0.707767 1.081562 -2.220947
v 0.665178 2.064876 -1.672658
v 0.665178 2.064876 -1.672658
v 0.665178 2.064876 -1.672658
v 0.665178 2.064876 -1.672658
v 0.665178 2.064876 -1.672658
v 0.665178 2.064876 -1.672658
v 0.665178 2.064876 -1.672658
v 0.230774 4.542251 -1.646810
v 0.230774 4.542251 -1.646810
v 0.230774 4.542251 -1.646810
v 0.230774 4.542251 -1.646810
v 0.230774 4.542251 -1.646810
v 0.230774 4.542251 -1.646810
v 0.230774 4.542251 -1.646810
v -0.004052 7.262177 -1.599961
v -0.004052 7.262177 -1.599961
v -0.004052 7.262177 -1.599961
v -0.004052 7.262177 -1.599961
v -0.004052 7.262177 -1.599961
v -0.004052 7.262177 -1.599961
v 0.257757 7.795749 -1.001529
v 0.257757 7.795749 -1.001529
v 0.257757 7.795749 -1.001529
v 0.257757 7.795749 -1.001529
v 0.198434 7.813106 0.926742
v 0.198434 7.813106 0.926742
v 0.198434 7.813106 0.926742
v 0.198434 7.813106 0.926742
v -0.222478 5.004807 1.478560
v -0.222478 5.004807 1.478560
v -0.222478 5.004807 1.478560
v -0.222478 5.004807 1.478560
v 0.372564 4.508492 1.664698
v 0.372564 4.508492 1.664698
v 0.372564 4.508492 1.664698
v 0.372564 4.508492 1.664698
v 0.372564 4.508492 1.664698
v 0.372564 4.508492 1.664698
v 0.372564 4.508492 1.664698
v 0.372564 4.508492 1.664698
v 0.372564 4.508492 1.664698
v -0.572501 5.539470 0.867858
v -0.572501 5.539470 0.867858
v -0.572501 5.539470 0.867858
v -0.572501 5.539470 0.867858
v -0.431487 7.377188 0.980629
v -0.431487 7.377188 0.980629
v -0.431487 7.377188 0.980629
v -0.431487 7.377188 0.980629
v -0.594205 5.539088 -0.786240
v -0.594205 5.539088 -0.786240
v -0.594205 5.539088 -0.786240
v -0.594205 5.539088 -0.786240
v -0.594205 5.539088 -0.786240
v -0.594205 5.539088 -0.786240
v -0.419391 7.367099 -1.007186
v -0.419391 7.367099 -1.007186
v -0.419391 7.367099 -1.007186
v -0.419391 7.367099 -1.007186
v -0.260072 5.057760 -1.438093
v -0.260072 5.057760 -1.438093
v -0.260072 5.057760 -1.438093
v -0.260072 5.057760 -1.438093
v 0.657803 4.041018 -1.641130
v 0.657803 4.041018 -1.641130
v 0.657803 4.041018 -1.641130
v 0.657803 4.041018 -1.641130
v 0.657803 4.041018 -1.641130
v 0.657803 4.041018 -1.641130
v 0.657803 4.041018 -1.641130
v 0.657803 4.041018 -1.641130
v -0.319097 0.375226 -3.023249
v -0.319097 0.375226 -3.023249
v -0.319097 0.375226 -3.023249
v -0.319097 0.375226 -3.023249
v -0.319097 0.375226 -3.023249
v -0.319097 0.375226 -3.023249
v -0.655421 -0.286660 -2.966720
v -0.655421 -0.286660 -2.966720
v -0.655421 -0.286660 -2.966720
v -0.655421 -0.286660 -2.966720
v -0.655421 -0.286660 -2.966720
v 0.332623 -1.747073 -2.133012
v 0.332623 -1.747073 -2.133012
v 0.332623 -1.747073 -2.133012
v 0.332623 -1.747073 -2.133012
v 0.332623 -1.747073 -2.133012
v 0.332623 -1.747073 -2.133012
v -0.230418 -0.288173 2.991956
v -0.230418 -0.288173 2.991956
v -0.230418 -0.288173 2.991956
v -0.230418 -0.288173 2.991956
v -0.230418 -0.288173 2.991956
v -0.663265 0.144182 2.958251
v -0.663265 0.144182 2.958251
v -0.663265 0.144182 2.958251
v -0.663265 0.144182 2.958251
v -0.305786 0.701739 2.819889
v -0.305786 0.701739 2.819889
v -0.305786 0.701739 2.819889
v -0.305786 0.701739 2.819889
v -0.305786 0.701739 2.819889
v -0.305786 0.701739 2.819889
v -0.305786 0.701739 2.819889
v -0.895852 2.052501 1.676014
v -0.895852 2.052501 1.676014
v -0.895852 2.052501 1.676014
v -0.895852 2.052501 1.676014
v -0.895852 2.052501 1.676014
v -0.895852 2.052501 1.676014
v -1.639623 4.784781 1.558011
v -1.639623 4.784781 1.558011
v -1.639623 4.784781 1.558011
v -1.639623 4.784781 1.558011
v -1.639623 4.784781 1.558011
v -2.035324 5.129904 0.894761
v -2.035324 5.129904 0.894761
v -2.035324 5.129904 0.894761
v -2.035324 5.129904 0.894761
v -2.270781 4.779725 1.249725
v -2.270781 4.779725 1.249725
v -2.270781 4.779725 1.249725
v -2.270781 4.779725 1.249725
v -2.170235 5.036715 -1.001361
v -2.170235 5.036715 -1.001361
v -2.170235 5.036715 -1.001361
v -2.170235 5.036715 -1.001361
v -2.170235 5.036715 -1.001361
v -1.968708 4.689517 -1.547175
v -1.968708 4.689517 -1.547175
v -1.968708 4.689517 -1.547175
v -1.968708 4.689517 -1.547175
v -1.968708 4.689517 -1.547175
v -1.968708 4.689517 -1.547175
v -1.968708 4.689517 -1.547175
v -0.903924 2.068827 -1.687875
v -0.903924 2.068827 -1.687875
v -0.903924 2.068827 -1.687875
v -0.903924 2.068827 -1.687875
v -0.903924 2.068827 -1.687875
v -0.903924 2.068827 -1.687875
v -0.903924 2.068827 -1.687875
v -1.756103 1.079217 -2.030653
v -1.756103 1.079217 -2.030653
v -1.756103 1.079217 -2.030653
v -1.756103 1.079217 -2.030653
v -1.756103 1.079217 -2.030653
v -1.756103 1.079217 -2.030653
v -1.756103 1.079217 -2.030653
v -1.112215 -1.053062 -2.332586
v -1.112215 -1.053062 -2.332586
v -1.112215 -1.053062 -2.332586
v -1.112215 -1.053062 -2.332586
v -1.692078 -1.941534 -1.828030
v -1.692078 -1.941534 -1.828030
v -1.692078 -1.941534 -1.828030
v -1.692078 -1.941534 -1.828030
v -1.692078 -1.941534 -1.828030
v -1.692078 -1.941534 -1.828030
v -1.738985 -1.948465 1.800263
v -1.738985 -1.948465 1.800263
v -1.738985 -1.948465 1.800263
v -1.738985 -1.948465 1.800263
v -1.738985 -1.948465 1.800263
v -1.738985 -1.948465 1.800263
v -1.738985 -1.948465 1.800263
v -1.110910 -1.029070 2.342745
v -1.110910 -1.029070 2.342745
v -1.110910 -1.029070 2.342745
v -1.110910 -1.029070 2.342745
v -1.110910 -1.029070 2.342745
v -1.622995 1.844878 1.557411
v -1.622995 1.844878 1.557411
v -1.622995 1.844878 1.557411
v -1.622995 1.844878 1.557411
v -1.622995 1.844878 1.557411
v -2.405436 3.906506 1.178043
v -2.405436 3.906506 1.178043
v -2.405436 3.906506 1.178043
v -2.405436 3.906506 1.178043
v -1.855612 2.694363 1.204865
v -1.855612 2.694363 1.204865
v -1.855612 2.694363 1.204865
v -1.855612 2.694363 1.204865
v -1.855612 2.694363 1.204865
v -1.966275 1.867129 1.114964
v -1.966275 1.867129 1.114964
v -1.966275 1.867129 1.114964
v -1.966275 1.867129 1.114964
v -1.966275 1.867129 1.114964
v -1.966275 1.867129 1.114964
v -1.814850 2.697143 -1.241717
v -1.814850 2.697143 -1.241717
v -1.814850 2.697143 -1.241717
v -1.814850 2.697143 -1.241717
v -2.379873 3.896035 -1.203624
v -2.379873 3.896035 -1.203624
v -2.379873 3.896035 -1.203624
v -2.379873 3.896035 -1.203624
v -1.845350 2.063691 -1.251860
v -1.845350 2.063691 -1.251860
v -1.845350 2.063691 -1.251860
v -1.845350 2.063691 -1.251860
v -1.845350 2.063691 -1.251860
v -2.607049 1.048385 -1.334400
v -2.607049 1.048385 -1.334400
v -2.607049 1.048385 -1.334400
v -2.607049 1.048385 -1.334400
v -2.607049 1.048385 -1.334400
v -2.607049 1.048385 -1.334400
v -2.762774 0.453469 1.287916
v -2.762774 0.453469 1.287916
v -2.762774 0.453469 1.287916
v -2.762774 0.453469 1.287916
v -2.762774 0.453469 1.287916
v -2.690196 0.341071 -1.307567
v -2.690196 0.341071 -1.307567
v -2.690196 0.341071 -1.307567
v -2.690196 0.341071 -1.307567
v -2.047299 -1.865609 -1.347112
v -2.047299 -1.865609 -1.347112
v -2.047299 -1.865609 -1.347112
v -2.047299 -1.865609 -1.347112
v -2.207045 -0.339660 1.234542
v -2.207045 -0.339660 1.234542
v -2.207045 -0.339660 1.234542
v -2.207045 -0.339660 1.234542
v -2.089264 -1.768313 1.472909
v -2.089264 -1.768313 1.472909
v -2.089264 -1.768313 1.472909
v -2.089264 -1.768313 1.472909
v -2.089264 -1.768313 1.472909
v -2.089264 -1.768313 1.472909
v -1.768545 -0.252410 1.940500
v -1.768545 -0.252410 1.940500
v -1.768545 -0.252410 1.940500
v -1.768545 -0.252410 1.940500
v -1.768545 -0.252410 1.940500
v -1.768545 -0.252410 1.940500
v -2.475524 0.555887 1.821258
v -2.475524 0.555887 1.821258
v -2.475524 0.555887 1.821258
v -2.475524 0.555887 1.821258
v -2.475524 0.555887 1.821258
v -2.154063 -0.354537 -1.545415
v -2.154063 -0.354537 -1.545415
v -2.154063 -0.354537 -1.545415
v -2.154063 -0.354537 -1.545415
v -2.154063 -0.354537 -1.545415
v -2.154063 -0.354537 -1.545415
v -2.154063 -0.354537 -1.545415
v -2.154063 -0.354537 -1.545415
v -2.154063 -0.354537 -1.545415
v -2.490934 0.575913 -1.800068
v -2.490934 0.575913 -1.800068
v -2.490934 0.575913 -1.800068
v -2.490934 0.575913 -1.800068
v 2.036086 1.433064 -2.014456
v 2.036086 1.433064 -2.014456
v 2.036086 1.433064 -2.014456
v 2.036086 1.433064 -2.014456
v 2.036086 1.433064 -2.014456
v 2.036086 1.433064 -2.014456
v 1.714296 -0.174433 -1.948396
v 1.714296 -0.174433 -1.948396
v 1.714296 -0.174433 -1.948396
v 1.714296 -0.174433 -1.948396
v 1.714296 -0.174433 -1.948396
v 1.714296 -0.174433 -1.948396
v 1.714296 -0.174433 -1.948396
v 2.545626 4.762360 0.997213
v 2.545626 4.762360 0.997213
v 2.545626 4.762360 0.997213
v 2.545626 4.762360 0.997213
v 2.545626 4.762360 0.997213
v 3.499754 7.016752 1.098631
v 3.499754 7.016752 1.098631
v 3.499754 7.016752 1.098631
v 3.499754 7.016752 1.098631
v 3.499754 7.016752 1.098631
v 3.499754 7.016752 1.098631
v 3.345447 7.885286 1.178509
v 3.345447 7.885286 1.178509
v 3.345447 7.885286 1.178509
v 3.345447 7.885286 1.178509
v 3.345447 7.885286 1.178509
vn 0.3574 0.7883 -0.5008
vn 0.7986 -0.3548 -0.4862
vn 0.8602 -0.4117 0.3009
vn 0.7029 0.0885 0.7057
vn 0.4770 0.6219 0.6210
vn 0.6801 0.5657 0.4662
vn 0.9995 -0.0306 0.0054
vn 0.2450 -0.9693 0.0219
vn 0.8444 -0.3750 0.3827
vn 0.8284 -0.0246 0.5595
vn 0.9694 0.2454 0.0094
vn 0.8297 -0.5521 0.0821
vn 0.7601 0.6498 -0.0032
vn 0.3608 0.4225 -0.8314
vn 0.8595 0.2905 -0.4205
vn -0.0046 0.4657 0.8849
vn 0.1165 -0.0640 0.9911
vn 0.0605 -0.0390 -0.9974
vn -0.4713 0.7506 -0.4631
vn -0.4858 0.7562 0.4384
vn -0.3038 -0.0070 0.9527
vn -0.0250 0.0435 -0.9987
vn 0.0092 0.6211 -0.7837
vn 0.1014 0.1779 0.9788
vn -0.0017 0.3494 0.9370
vn -0.4202 0.0347 -0.9068
vn -0.3503 0.5614 -0.7498
vn -0.2922 0.5279 -0.7975
vn -0.6636 0.5510 0.5060
vn -0.2398 0.3154 0.9182
vn -0.2150 -0.9766 -0.0046
vn -0.4744 -0.8800 0.0233
vn -0.9962 -0.0852 -0.0185
vn -0.8503 0.0177 0.5260
vn -0.8020 0.4931 0.3372
vn -0.8072 -0.1325 -0.5753
vn -0.7589 -0.4126 -0.5038
vn -0.9379 0.0976 -0.3329
vn -0.4011 0.4307 0.8085
vn -0.6753 0.0264 0.7371
vn -0.6196 -0.0408 -0.7839
vn -0.0962 -0.2950 -0.9506
vn -0.5556 0.5104 -0.6564
vn -0.5661 0.4792 -0.6707
vn -0.8515 0.2392 -0.4666
vn -0.3796 -0.3121 0.8709
vn -0.0913 -0.4460 -0.8903
vn -0.4976 0.1804 -0.8484
vn -0.1250 0.7665 -0.6300
vn -0.4086 -0.0196 -0.9125
vn -0.0207 0.0154 -0.9997
vn 0.1934 0.4246 -0.8845
vn 0.0901 0.6180 -0.7810
vn 0.5428 -0.0815 -0.8359
vn 0.2644 0.0026 -0.9644
vn 0.6580 -0.1104 -0.7449
vn 0.4361 0.1862 0.8804
vn 0.2791 -0.8098 -0.5161
vn 0.4035 0.7734 0.4890
vn 0.5741 0.8187 0.0099
vn 0.6769 0.0527 0.7342
vn 0.2487 -0.7962 0.5515
vn 0.3894 -0.9210 -0.0051
vn 0.8698 -0.3852 -0.3084
vn 0.8234 -0.0312 -0.5665
vn 0.5178 0.7124 0.4736
vn 0.2899 -0.7104 0.6414
vn 0.2198 -0.3775 0.8996
vn -0.0359 0.0327 0.9988
vn 0.1247 0.0951 -0.9876
vn -0.8182 0.0088 -0.5748
vn 0.5828 0.6485 -0.4896
vn 0.6138 0.1050 0.7825
vn -0.0189 0.4416 0.8970
vn 0.3176 0.4722 -0.8223
vn 0.5332 0.8459 -0.0090
vn 0.9336 -0.3580 -0.0154
vn 0.6864 0.0825 -0.7225
vn 0.4720 -0.1203 0.8733
vn 0.9494 0.3141 -0.0030
vn 0.9997 -0.0229 -0.0002
vn 0.7936 -0.0506 0.6063
vn 0.9503 -0.3114 -0.0047
vn 0.7299 -0.2250 -0.6454
vn -0.0190 -0.7654 0.6432
vn 0.0068 0.4872 -0.8733
vn -0.8679 0.0646 -0.4926
vn -0.0487 -0.0528 -0.9974
vn 0.0097 0.0160 -0.9998
vn -0.2849 0.7701 0.5707
vn -0.1766 0.7997 -0.5739
vn -0.6858 -0.0553 -0.7257
vn -0.6706 -0.1930 -0.7163
vn -0.6397 -0.1513 0.7536
vn -0.2842 0.5443 0.7893
vn -0.5489 -0.2312 0.8032
vn -0.9928 0.1155 -0.0328
vn -0.9973 -0.0721 -0.0124
vn -0.8664 0.4956 0.0610
vn -0.8002 0.5996 0.0089
vn -0.7885 0.0388 0.6138
vn -0.3964 -0.2150 0.8926
vn -0.6116 -0.1122 0.7832
vn -0.8153 0.5782 0.0296
vn -0.1624 -0.5698 -0.8056
vn 0.3659 -0.2622 -0.8929
vn -0.0181 0.3603 -0.9326
vn 0.0510 -0.0410 -0.9979
vn 0.1960 -0.6399 -0.7430
vn 0.6499 0.0145 -0.7598
vn 0.4868 0.7209 -0.4932
vn 0.5212 -0.1389 -0.8420
vn 0.1725 -0.0749 -0.9822
vn -0.0006 -1.0000 -0.0019
vn 0.7317 -0.1577 0.6632
vn 0.5742 0.0879 0.8140
vn 0.5221 -0.1185 -0.8446
vn 0.9201 -0.3907 0.0271
vn 0.4481 0.3664 0.8154
vn 0.5934 -0.1616 0.7885
vn 0.8015 -0.3607 0.4770
vn 0.4091 -0.9124 0.0109
vn 0.7604 0.6494 -0.0029
vn 0.8154 -0.0377 -0.5777
vn 0.4663 -0.8846 -0.0036
vn 0.0118 -0.9999 0.0105
vn 0.2648 -0.0171 0.9641
vn 0.2019 -0.0721 0.9767
vn 0.2772 -0.8644 0.4195
vn 0.0672 -0.0558 0.9962
vn -0.0422 0.2362 0.9708
vn -0.6516 0.5400 0.5327
vn 0.9645 -0.2639 -0.0069
vn 0.9645 -0.2640 -0.0069
vn 0.9517 0.3062 -0.0249
vn 0.9517 0.3061 -0.0249
vn 0.4658 -0.6747 -0.5725
vn 0.4658 -0.6748 -0.5725
vn 0.0018 -0.8973 -0.4415
vn 0.0018 -0.8972 -0.4415
vn 0.9859 0.1672 -0.0099
vn -0.5520 0.8337 -0.0159
vn -0.8323 0.0427 0.5527
vn -0.8322 0.0427 0.5528
vn -0.9963 0.0859 0.0024
vn -0.9963 0.0861 0.0026
vn -0.0284 0.0193 0.9994
vn -0.4898 -0.1690 -0.8553
vn -0.3929 -0.0546 0.9180
vn -0.9076 -0.4196 -0.0118
vn -0.9851 0.1708 -0.0177
vn -0.8068 -0.5908 -0.0049
vn -0.6951 -0.5280 0.4879
vn -0.9947 0.0982 -0.0293
vn -0.9947 0.0981 -0.0293
vn -0.9947 0.0981 -0.0294
vn -0.1194 -0.5051 0.8548
vn -0.2867 0.9579 -0.0126
vn -0.2868 0.9579 -0.0127
vn -0.1459 0.7720 0.6186
vn -0.1460 0.7721 0.6186
vn -0.2088 0.8085 0.5502
vn -0.1752 0.7553 -0.6316
vn -0.1752 0.7552 -0.6316
vn -0.2380 0.9712 -0.0061
vn -0.2380 0.9712 -0.0060
vn 0.0985 0.5897 0.8016
vn 0.0984 0.5897 0.8016
s 0
usemtl Material.001
f 26//1 13//1 21//1
f 3//2 10//2 170//2
f 63//3 52//3 57//3
f 55//4 70//4 72//4
f 71//5 66//5 76//5
f 89//6 78//6 87//6
f 135//7 131//7 115//7
f 127//8 102//8 108//8
f 133//9 90//9 98//9
f 132//10 97//10 130//10
f 81//11 92//11 126//11
f 62//12 56//12 138//12
f 149//13 73//13 155//13
f 160//14 147//14 152//14
f 139//15 150//15 273//15
f 179//16 182//16 83//16
f 184//17 191//17 101//17
f 194//18 288//18 198//18
f 224//19 219//19 261//19
f 172//20 228//20 251//20
f 173//21 232//21 235//21
f 267//22 342//22 336//22
f 204//23 276//23 343//23
f 305//24 299//24 293//24
f 234//25 317//25 238//25
f 397//26 339//26 405//26
f 406//27 340//27 349//27
f 275//28 350//28 341//28
f 296//29 300//29 438//29
f 310//30 387//30 378//30
f 425//31 358//31 364//31
f 424//32 363//32 435//32
f 448//33 431//33 426//33
f 427//34 432//34 436//34
f 416//35 442//35 390//35
f 449//36 356//36 423//36
f 457//37 451//37 421//37
f 408//38 456//38 419//38
f 445//39 301//39 376//39
f 369//40 433//40 362//40
f 353//41 357//41 454//41
f 351//42 455//42 459//42
s 1
f 458//43 412//43 347//43
s 0
f 404//44 346//44 411//44
f 327//45 331//45 400//45
f 291//46 298//46 372//46
f 355//47 286//47 359//47
f 274//48 282//48 348//48
f 257//49 264//49 334//49
f 220//50 210//50 263//50
f 222//51 19//51 212//51
f 159//52 207//52 146//52
f 158//53 461//53 206//53
f 469//54 110//54 196//54
f 200//55 467//55 195//55
f 202//56 290//56 279//56
f 187//57 306//57 294//57
f 168//58 6//58 164//58
f 484//59 30//59 35//59
f 32//60 486//60 15//60
f 487//61 42//61 479//61
f 473//62 44//62 49//62
f 7//63 60//63 142//63
f 123//64 118//64 472//64
f 471//65 117//65 114//65
f 67//66 86//66 77//66
f 474//67 51//67 59//67
f 53//68 48//68 240//68
f 38//69 176//69 236//69
f 215//70 162//70 269//70
f 218//71 254//71 259//71
s 1
f 154//72 122//72 465//72
s 0
f 54//73 243//73 69//73
f 65//74 178//74 82//74
f 208//75 201//75 277//75
f 27//76 31//76 14//76
f 4//77 482//77 12//77
f 16//78 2//78 23//78
f 95//79 88//79 85//79
f 157//80 80//80 124//80
f 120//81 136//81 116//81
f 129//82 96//82 104//82
f 145//83 64//83 140//83
f 272//84 144//84 137//84
f 99//85 190//85 366//85
f 203//86 460//86 197//86
f 253//87 217//87 262//87
f 211//88 266//88 335//88
f 268//89 205//89 344//89
f 325//90 314//90 320//90
f 330//91 256//91 333//91
f 345//92 280//92 452//92
f 453//93 281//93 352//93
f 370//94 297//94 439//94
f 303//95 309//95 377//95
f 307//96 381//96 386//96
f 407//97 418//97 413//97
f 447//98 422//98 430//98
f 389//99 409//99 414//99
f 403//100 410//100 391//100
f 385//101 392//101 374//101
f 441//102 302//102 446//102
f 371//103 440//103 434//103
f 328//104 323//104 318//104
f 354//105 283//105 285//105
f 278//106 289//106 284//106
s 1
f 265//107 213//107 337//107
s 0
f 214//108 20//108 166//108
f 216//109 167//109 163//109
f 271//110 148//110 209//110
f 161//111 153//111 463//111
f 464//112 121//112 468//112
f 199//113 462//113 466//113
f 360//114 105//114 367//114
f 188//115 295//115 192//115
f 68//116 242//116 181//116
f 22//117 1//117 169//117
f 11//118 481//118 477//118
f 485//119 36//119 40//119
f 46//120 478//120 41//120
f 480//121 47//121 476//121
f 8//122 475//122 61//122
f 156//123 74//123 79//123
f 111//124 470//124 113//124
f 112//125 128//125 109//125
f 107//126 100//126 368//126
f 94//127 186//127 103//127
f 93//128 84//128 185//128
f 50//129 45//129 241//129
f 43//130 39//130 239//130
f 37//131 34//131 175//131
f 444//132 375//132 393//132
s 1
f 91//133 134//134 119//133
f 91//133 119//133 125//134
f 75//135 151//136 141//135
f 75//135 141//135 58//135
f 143//137 270//137 165//137
f 143//137 165//137 9//138
f 361//139 287//140 193//139
f 361//139 193//139 106//139
f 483//141 5//141 17//141
f 483//141 17//141 488//141
f 250//142 227//142 223//142
f 250//142 223//142 260//142
f 231//143 171//144 249//143
f 231//143 249//143 245//143
f 244//145 248//145 258//146
f 244//145 258//146 252//145
f 311//147 177//147 237//147
f 311//147 237//147 316//147
f 396//148 401//148 332//148
f 396//148 332//148 338//148
f 382//149 308//149 313//149
f 382//149 313//149 324//149
f 384//150 380//150 399//150
f 384//150 399//150 395//150
f 379//151 322//151 326//151
f 379//151 326//151 398//151
f 428//152 415//152 420//152
f 428//152 420//152 450//152
f 429//153 437//153 443//153
f 429//153 443//153 417//153
f 388//154 383//155 394//156
f 388//154 394//156 402//156
f 373//157 365//157 189//157
f 373//157 189//157 292//157
f 319//158 246//158 255//159
f 319//158 255//159 329//158
f 247//160 321//161 315//160
f 247//160 315//160 233//160
f 230//162 174//162 33//162
f 230//162 33//162 29//162
f 18//163 221//163 226//164
f 18//163 226//164 25//164
f 225//165 229//165 28//165
f 225//165 28//165 24//166
f 312//167 304//167 183//167
f 312//167 183//167 180//168
