# Blender 5.1.1
# www.blender.org
mtllib ROCK_4.mtl
o Object_26
v 0.275243 3.460630 0.002422
v 0.275243 3.460630 0.002422
v 0.275243 3.460630 0.002422
v 0.275243 3.460630 0.002422
v 0.275243 3.460630 0.002422
v 0.275243 3.460630 0.002422
v 0.061052 3.416306 0.612013
v 0.061052 3.416306 0.612013
v 0.061052 3.416306 0.612013
v 0.061052 3.416306 0.612013
v 0.061052 3.416306 0.612013
v 0.061052 3.416306 0.612013
v 0.570536 1.771847 -1.067025
v 0.570536 1.771847 -1.067025
v 0.570536 1.771847 -1.067025
v 0.570536 1.771847 -1.067025
v 0.910294 2.073166 -0.823931
v 0.910294 2.073166 -0.823931
v 0.910294 2.073166 -0.823931
v 0.910294 2.073166 -0.823931
v 0.910294 2.073166 -0.823931
v 0.910294 2.073166 -0.823931
v 1.213112 2.251296 -0.004452
v 1.213112 2.251296 -0.004452
v 1.213112 2.251296 -0.004452
v 1.213112 2.251296 -0.004452
v 1.213112 2.251296 -0.004452
v 1.213112 2.251296 -0.004452
v 1.019939 2.120574 0.637619
v 1.019939 2.120574 0.637619
v 1.019939 2.120574 0.637619
v 1.019939 2.120574 0.637619
v 1.019939 2.120574 0.637619
v 0.616477 1.936812 0.996256
v 0.616477 1.936812 0.996256
v 0.616477 1.936812 0.996256
v 0.616477 1.936812 0.996256
v 0.616477 1.936812 0.996256
v 0.616477 1.936812 0.996256
v -0.283449 2.652627 1.089623
v -0.283449 2.652627 1.089623
v -0.283449 2.652627 1.089623
v -0.283449 2.652627 1.089623
v -0.283449 2.652627 1.089623
v -0.717983 3.006560 0.348765
v -0.717983 3.006560 0.348765
v -0.717983 3.006560 0.348765
v -0.717983 3.006560 0.348765
v -0.717983 3.006560 0.348765
v -0.356281 3.273961 -0.574353
v -0.356281 3.273961 -0.574353
v -0.356281 3.273961 -0.574353
v -0.356281 3.273961 -0.574353
v -0.356281 3.273961 -0.574353
v -0.356281 3.273961 -0.574353
v 0.039912 2.982987 -0.986762
v 0.039912 2.982987 -0.986762
v 0.039912 2.982987 -0.986762
v 0.039912 2.982987 -0.986762
v 0.039912 2.982987 -0.986762
v -0.685222 2.305592 -0.854097
v -0.685222 2.305592 -0.854097
v -0.685222 2.305592 -0.854097
v -0.685222 2.305592 -0.854097
v -0.685222 2.305592 -0.854097
v -0.968394 2.308623 -0.001390
v -0.968394 2.308623 -0.001390
v -0.968394 2.308623 -0.001390
v -0.968394 2.308623 -0.001390
v -0.968394 2.308623 -0.001390
v -0.680560 2.107120 0.733206
v -0.680560 2.107120 0.733206
v -0.680560 2.107120 0.733206
v -0.680560 2.107120 0.733206
v -0.680560 2.107120 0.733206
v -0.653793 1.695502 0.065503
v -0.653793 1.695502 0.065503
v -0.653793 1.695502 0.065503
v -0.653793 1.695502 0.065503
v -0.653793 1.695502 0.065503
v -0.653793 1.695502 0.065503
v -0.383570 1.270701 -0.000185
v -0.383570 1.270701 -0.000185
v -0.383570 1.270701 -0.000185
v -0.383570 1.270701 -0.000185
v -0.383570 1.270701 -0.000185
v -0.079070 1.935137 -0.859083
v -0.079070 1.935137 -0.859083
v -0.079070 1.935137 -0.859083
v -0.079070 1.935137 -0.859083
v -0.079070 1.935137 -0.859083
v -0.079070 1.935137 -0.859083
v 0.008669 1.037471 -0.923061
v 0.008669 1.037471 -0.923061
v 0.008669 1.037471 -0.923061
v 0.008669 1.037471 -0.923061
v 0.008669 1.037471 -0.923061
v 0.008669 1.037471 -0.923061
v 0.008669 1.037471 -0.923061
v -0.289509 0.064121 -1.178952
v -0.289509 0.064121 -1.178952
v -0.289509 0.064121 -1.178952
v -0.289509 0.064121 -1.178952
v -0.289509 0.064121 -1.178952
v 0.520662 -0.900393 -0.894153
v 0.520662 -0.900393 -0.894153
v 0.520662 -0.900393 -0.894153
v 0.520662 -0.900393 -0.894153
v 0.520662 -0.900393 -0.894153
v 0.643024 -0.936821 0.672596
v 0.643024 -0.936821 0.672596
v 0.643024 -0.936821 0.672596
v 0.643024 -0.936821 0.672596
v 0.643024 -0.936821 0.672596
v 0.643024 -0.936821 0.672596
v -0.532560 -0.942394 0.883149
v -0.532560 -0.942394 0.883149
v -0.532560 -0.942394 0.883149
v -0.532560 -0.942394 0.883149
v -0.532560 -0.942394 0.883149
v 0.304606 0.015401 1.170128
v 0.304606 0.015401 1.170128
v 0.304606 0.015401 1.170128
v 0.304606 0.015401 1.170128
v 0.304606 0.015401 1.170128
v 0.304606 0.015401 1.170128
v 0.100644 0.726431 0.981057
v 0.100644 0.726431 0.981057
v 0.100644 0.726431 0.981057
v 0.100644 0.726431 0.981057
v 0.100644 0.726431 0.981057
v 0.100644 0.726431 0.981057
v 0.656827 0.778065 0.731857
v 0.656827 0.778065 0.731857
v 0.656827 0.778065 0.731857
v 0.656827 0.778065 0.731857
v 0.656827 0.778065 0.731857
v 0.656827 0.778065 0.731857
v 0.656827 0.778065 0.731857
v 1.179309 0.029157 0.256346
v 1.179309 0.029157 0.256346
v 1.179309 0.029157 0.256346
v 1.179309 0.029157 0.256346
v 1.179309 0.029157 0.256346
v 1.179309 0.029157 0.256346
v 0.918617 0.821986 -0.003219
v 0.918617 0.821986 -0.003219
v 0.918617 0.821986 -0.003219
v 0.918617 0.821986 -0.003219
v 0.918617 0.821986 -0.003219
v 0.671814 0.797636 -0.710130
v 0.671814 0.797636 -0.710130
v 0.671814 0.797636 -0.710130
v 0.671814 0.797636 -0.710130
v 0.671814 0.797636 -0.710130
v 0.671814 0.797636 -0.710130
v 0.846710 -0.022873 -0.862641
v 0.846710 -0.022873 -0.862641
v 0.846710 -0.022873 -0.862641
v 0.846710 -0.022873 -0.862641
v 0.846710 -0.022873 -0.862641
v 0.846710 -0.022873 -0.862641
v 0.846710 -0.022873 -0.862641
v 1.015333 -0.617958 -0.003451
v 1.015333 -0.617958 -0.003451
v 1.015333 -0.617958 -0.003451
v 1.015333 -0.617958 -0.003451
v -0.234823 1.143617 0.640576
v -0.234823 1.143617 0.640576
v -0.234823 1.143617 0.640576
v -0.234823 1.143617 0.640576
v -0.234823 1.143617 0.640576
v 0.010412 1.857757 0.884290
v 0.010412 1.857757 0.884290
v 0.010412 1.857757 0.884290
v 0.010412 1.857757 0.884290
v 0.010412 1.857757 0.884290
v 0.010412 1.857757 0.884290
v -0.582850 0.011187 1.019222
v -0.582850 0.011187 1.019222
v -0.582850 0.011187 1.019222
v -0.582850 0.011187 1.019222
v -0.582850 0.011187 1.019222
v -1.202446 0.242396 0.178358
v -1.202446 0.242396 0.178358
v -1.202446 0.242396 0.178358
v -1.202446 0.242396 0.178358
v -1.202446 0.242396 0.178358
v -1.202446 0.242396 0.178358
v -0.838649 -0.961148 -0.521738
v -0.838649 -0.961148 -0.521738
v -0.838649 -0.961148 -0.521738
v -0.838649 -0.961148 -0.521738
v -0.838649 -0.961148 -0.521738
v -0.838649 -0.961148 -0.521738
v -0.979392 0.283972 -0.651689
v -0.979392 0.283972 -0.651689
v -0.979392 0.283972 -0.651689
v -0.979392 0.283972 -0.651689
v -0.979392 0.283972 -0.651689
vn 0.7616 0.5697 0.3090
vn 0.7262 0.5654 -0.3912
vn 0.3770 0.3629 0.8522
vn -0.5221 0.6090 0.5971
vn 0.0529 -0.1267 -0.9905
vn -0.0766 -0.1120 -0.9907
vn -0.9106 0.1298 0.3924
vn -0.8764 -0.4249 0.2268
vn -0.4604 -0.7469 -0.4798
vn 0.9102 0.2547 -0.3266
vn 0.9520 -0.1301 -0.2769
vn 0.7204 0.0641 0.6906
vn -0.7101 0.0036 0.7041
vn -0.3888 -0.7912 0.4721
vn -0.3655 0.3943 0.8432
vn -0.8991 -0.3888 0.2011
vn -0.7844 0.5932 -0.1811
vn -0.7228 0.6263 0.2920
vn -0.9551 -0.1355 -0.2634
vn -0.1649 0.2090 0.9639
vn -0.1651 -0.1479 0.9751
vn 0.1626 -0.4109 0.8971
vn 0.0069 -0.9999 0.0119
vn 0.0375 -0.9990 -0.0262
vn 0.2632 -0.0632 -0.9627
vn -0.7966 0.2093 0.5672
vn -0.1899 0.0686 0.9794
vn 0.6863 0.5775 -0.4421
vn 0.6772 -0.1900 -0.7109
vn 0.5062 0.3898 0.7693
vn -0.2957 0.0391 -0.9545
vn -0.8766 0.3822 -0.2925
vn -0.8420 -0.4624 -0.2780
vn 0.9423 -0.2384 0.2350
vn -0.5081 0.3939 -0.7660
vn 0.9338 0.2129 -0.2875
vn 0.8696 -0.3093 -0.3849
vn 0.8596 0.3905 0.3295
vn 0.8802 -0.3512 0.3191
vn 0.4161 -0.1885 0.8896
vn -0.4918 0.3592 -0.7932
vn -0.2188 -0.4408 -0.8705
vn 0.7438 0.5749 0.3408
vn 0.6923 -0.1375 0.7084
vn -0.0675 0.6714 -0.7380
vn 0.3593 0.3347 0.8712
vn 0.7193 -0.1033 0.6870
vn 0.9287 -0.1916 -0.3176
vn 0.9283 -0.1910 0.3192
vn 0.3759 0.2462 -0.8934
vn -0.3178 -0.3456 0.8830
vn -0.8148 -0.1238 0.5664
vn -0.6302 -0.1507 -0.7617
vn 0.5794 -0.8125 -0.0641
vn 0.1821 -0.3215 -0.9292
vn -0.4815 0.8741 0.0645
vn 0.9322 -0.2011 -0.3008
vn 0.1622 0.8729 -0.4601
vn -0.2642 0.9642 -0.0227
vn -0.8776 0.4256 -0.2206
vn -0.1363 -0.2947 0.9458
vn 0.2762 0.1643 -0.9469
vn -0.6193 0.6574 -0.4293
vn -0.6757 0.4120 0.6112
vn -0.8694 -0.1907 -0.4557
vn -0.8695 -0.1906 -0.4557
vn -0.8622 -0.1503 0.4838
vn -0.8621 -0.1504 0.4838
vn -0.8621 -0.1503 0.4839
s 0
usemtl Material.001
f 6//1 12//1 32//1
f 23//2 21//2 4//2
f 10//3 44//3 36//3
f 48//4 41//4 7//4
f 18//5 92//5 58//5
f 65//6 57//6 90//6
f 66//7 71//7 45//7
f 69//8 76//8 72//8
f 88//9 80//9 64//9
f 154//10 147//10 161//10
f 163//11 145//11 167//11
f 136//12 126//12 141//12
f 170//13 127//13 174//13
f 81//14 175//14 74//14
f 128//15 172//15 181//15
f 185//16 191//16 116//16
f 197//17 187//17 84//17
f 188//18 169//18 85//18
s 1
f 184//19 196//19 190//19
s 0
f 183//20 122//20 130//20
f 121//21 182//21 118//21
f 123//22 120//22 112//22
f 110//23 119//23 194//23
f 106//24 111//24 195//24
f 103//25 157//25 107//25
f 47//26 73//26 40//26
f 177//27 129//27 34//27
f 60//28 3//28 20//28
f 153//29 16//29 19//29
f 11//30 38//30 29//30
f 96//31 89//31 13//31
f 61//32 68//32 51//32
f 70//33 62//33 79//33
f 139//34 28//34 33//34
f 56//35 63//35 52//35
f 144//36 162//36 150//36
f 160//37 165//37 109//37
f 137//38 142//38 146//38
f 115//39 166//39 143//39
s 1
f 37//40 132//40 134//40
s 0
f 200//41 95//41 101//41
f 105//42 193//42 102//42
f 24//43 5//43 31//43
f 135//44 30//44 39//44
f 91//45 17//45 14//45
f 133//46 131//46 124//46
f 114//47 140//47 125//47
f 155//48 26//48 149//48
f 148//49 25//49 138//49
f 159//50 99//50 152//50
f 176//51 42//51 75//51
f 179//52 186//52 117//52
f 192//53 198//53 100//53
f 108//54 164//54 113//54
f 15//55 151//55 97//55
f 8//56 53//56 49//56
f 156//57 22//57 27//57
f 2//58 59//58 55//58
f 1//59 54//59 9//59
f 67//60 46//60 50//60
f 178//61 35//61 43//61
f 98//62 158//62 104//62
f 86//63 94//63 199//63
f 171//64 189//64 180//64
s 1
f 82//65 77//65 87//66
f 82//65 87//66 93//66
f 173//67 78//68 83//68
f 173//67 83//68 168//69
