# Blender 5.1.1
# www.blender.org
mtllib ROCK_6.mtl
o Object_34
v 0.673273 0.672911 -0.678811
v 0.673273 0.672911 -0.678811
v 0.673273 0.672911 -0.678811
v 0.863134 -0.196374 -0.850212
v 0.863134 -0.196374 -0.850212
v 0.863134 -0.196374 -0.850212
v 0.863134 -0.196374 -0.850212
v 0.863134 -0.196374 -0.850212
v 0.863134 -0.196374 -0.850212
v 0.863134 -0.196374 -0.850212
v 1.174981 0.001168 -0.000000
v 1.174981 0.001168 -0.000000
v 1.174981 0.001168 -0.000000
v 1.174981 0.001168 -0.000000
v 0.851109 0.858200 -0.001816
v 0.851109 0.858200 -0.001816
v 0.851109 0.858200 -0.001816
v 0.851109 0.858200 -0.001816
v 0.851109 0.858200 -0.001816
v 0.851109 0.858200 -0.001816
v 0.851109 0.858200 -0.001816
v -0.000000 1.175092 -0.000000
v -0.000000 1.175092 -0.000000
v -0.000000 1.175092 -0.000000
v -0.000000 1.175092 -0.000000
v 0.011724 0.853181 0.855982
v 0.011724 0.853181 0.855982
v 0.011724 0.853181 0.855982
v 0.011724 0.853181 0.855982
v 0.011724 0.853181 0.855982
v 0.011724 0.853181 0.855982
v 0.011724 0.853181 0.855982
v -0.000746 -0.290671 1.174116
v -0.000746 -0.290671 1.174116
v -0.000746 -0.290671 1.174116
v -0.000746 -0.290671 1.174116
v 0.444130 -0.988021 0.659203
v 0.444130 -0.988021 0.659203
v 0.444130 -0.988021 0.659203
v 0.444130 -0.988021 0.659203
v 0.444130 -0.988021 0.659203
v -0.803890 -0.991445 -0.011949
v -0.803890 -0.991445 -0.011949
v -0.803890 -0.991445 -0.011949
v -0.803890 -0.991445 -0.011949
v -0.803890 -0.991445 -0.011949
v -0.803890 -0.991445 -0.011949
v 0.016767 -0.942089 -0.832402
v 0.016767 -0.942089 -0.832402
v 0.016767 -0.942089 -0.832402
v 0.016767 -0.942089 -0.832402
v 0.016767 -0.942089 -0.832402
v 0.000000 0.001168 -1.174981
v 0.000000 0.001168 -1.174981
v 0.000000 0.001168 -1.174981
v 0.000000 0.001168 -1.174981
v -0.014431 0.853686 -0.854298
v -0.014431 0.853686 -0.854298
v -0.014431 0.853686 -0.854298
v -0.014431 0.853686 -0.854298
v -0.014431 0.853686 -0.854298
v -0.014431 0.853686 -0.854298
v -0.014431 0.853686 -0.854298
v -0.864815 0.855322 -0.212507
v -0.864815 0.855322 -0.212507
v -0.864815 0.855322 -0.212507
v -0.864815 0.855322 -0.212507
v -0.864815 0.855322 -0.212507
v -0.864815 0.855322 -0.212507
v -0.864815 0.855322 -0.212507
v -0.848142 -0.186720 -0.871078
v -0.848142 -0.186720 -0.871078
v -0.848142 -0.186720 -0.871078
v -0.848142 -0.186720 -0.871078
v -0.848142 -0.186720 -0.871078
v -0.848142 -0.186720 -0.871078
v -0.857345 -0.199405 0.857736
v -0.857345 -0.199405 0.857736
v -0.857345 -0.199405 0.857736
v -0.857345 -0.199405 0.857736
v -0.857345 -0.199405 0.857736
v -0.857345 -0.199405 0.857736
v -0.857345 -0.199405 0.857736
v -1.174981 0.001168 0.000000
v -1.174981 0.001168 0.000000
v -1.174981 0.001168 0.000000
v -1.174981 0.001168 0.000000
v -0.671030 0.682952 0.670724
v -0.671030 0.682952 0.670724
v -0.671030 0.682952 0.670724
v 0.857351 0.219911 0.857906
v 0.857351 0.219911 0.857906
v 0.857351 0.219911 0.857906
v 0.857351 0.219911 0.857906
v 0.857351 0.219911 0.857906
v 0.857351 0.219911 0.857906
v 0.836370 -0.931323 0.032614
v 0.836370 -0.931323 0.032614
v 0.836370 -0.931323 0.032614
v 0.836370 -0.931323 0.032614
v 0.836370 -0.931323 0.032614
v 0.836370 -0.931323 0.032614
vn 0.9063 -0.3380 -0.2539
vn 0.8668 -0.3009 0.3976
vn 0.9060 0.3429 0.2480
vn 0.3302 0.8850 0.3283
vn -0.2526 0.9070 -0.3370
vn -0.8255 0.3991 0.3990
vn -0.9047 -0.3413 0.2552
vn -0.9037 -0.3347 -0.2669
vn -0.9341 0.2511 0.2539
vn -0.3816 0.3198 -0.8673
vn 0.2671 -0.3248 -0.9073
vn -0.2514 -0.3344 -0.9083
vn 0.5582 -0.6459 -0.5208
vn -0.5278 -0.6333 -0.5660
vn 0.0383 -0.9971 -0.0662
vn -0.3334 -0.7072 0.6235
vn -0.3154 -0.6856 0.6561
vn 0.4820 -0.3003 0.8231
vn -0.3105 0.2579 0.9149
vn -0.3127 0.2597 0.9137
vn -0.3975 0.8571 0.3278
vn 0.3174 0.8901 -0.3270
vn 0.9137 0.2610 -0.3114
vn 0.3001 0.2472 -0.9213
vn 0.8611 0.3246 -0.3913
vn 0.8069 -0.3538 0.4731
vn 0.3976 0.3289 -0.8566
vn 0.3278 0.8824 -0.3375
vn 0.0372 -0.9990 -0.0228
vn 0.5154 0.6898 0.5084
vn 0.1933 0.2609 0.9458
vn -0.5393 0.4437 -0.7157
vn -0.8941 0.2289 -0.3849
vn -0.2967 0.9230 0.2452
s 0
usemtl Material.001
f 9//1 14//1 102//1
f 12//2 95//2 101//2
f 96//3 13//3 20//3
f 31//4 17//4 25//4
f 59//5 70//5 23//5
f 87//6 79//6 66//6
f 78//7 84//7 42//7
f 85//8 71//8 43//8
f 88//9 64//9 77//9
f 53//10 75//10 58//10
f 55//11 4//11 51//11
f 76//12 54//12 49//12
f 7//13 99//13 52//13
f 74//14 48//14 44//14
f 98//15 39//15 47//15
f 45//16 37//16 80//16
f 33//17 81//17 38//17
f 40//18 92//18 36//18
f 83//19 34//19 28//19
f 27//20 89//20 82//20
f 68//21 26//21 22//21
s 1
f 15//22 2//22 61//22
s 0
f 3//23 21//23 10//23
f 1//24 5//24 60//24
f 11//25 8//25 19//25
f 41//26 100//26 94//26
f 6//27 56//27 63//27
f 16//28 62//28 24//28
f 50//29 97//29 46//29
f 93//30 18//30 32//30
f 35//31 91//31 30//31
f 67//32 57//32 73//32
s 1
f 72//33 86//33 65//33
s 0
f 69//34 90//34 29//34
